<?xml version="1.0" encoding="utf-8"?>
<!-- Generator: Adobe Illustrator 16.0.0, SVG Export Plug-In . SVG Version: 6.00 Build 0)  -->
<!DOCTYPE svg PUBLIC "-//W3C//DTD SVG 1.1//EN" "http://www.w3.org/Graphics/SVG/1.1/DTD/svg11.dtd">
<svg version="1.1" id="Layer_1" xmlns="http://www.w3.org/2000/svg" xmlns:xlink="http://www.w3.org/1999/xlink" x="0px" y="0px"
	 width="240px" height="240px" viewBox="0 0 240 240" enable-background="new 0 0 240 240" xml:space="preserve">
<metadata><?xpacket begin="﻿" id="W5M0MpCehiHzreSzNTczkc9d"?>
<x:xmpmeta xmlns:x="adobe:ns:meta/" x:xmptk="Adobe XMP Core 5.3-c011 66.145661, 2012/02/06-14:56:27        ">
   <rdf:RDF xmlns:rdf="http://www.w3.org/1999/02/22-rdf-syntax-ns#">
      <rdf:Description rdf:about=""
            xmlns:dc="http://purl.org/dc/elements/1.1/">
         <dc:format>image/svg+xml</dc:format>
         <dc:title>
            <rdf:Alt>
               <rdf:li xml:lang="x-default">Print</rdf:li>
            </rdf:Alt>
         </dc:title>
      </rdf:Description>
      <rdf:Description rdf:about=""
            xmlns:xmp="http://ns.adobe.com/xap/1.0/"
            xmlns:xmpGImg="http://ns.adobe.com/xap/1.0/g/img/">
         <xmp:MetadataDate>2015-06-11T11:59:31+12:00</xmp:MetadataDate>
         <xmp:ModifyDate>2015-06-11T11:59:31+12:00</xmp:ModifyDate>
         <xmp:CreateDate>2015-06-11T11:59:31+12:00</xmp:CreateDate>
         <xmp:CreatorTool>Adobe Illustrator CS6 (Macintosh)</xmp:CreatorTool>
         <xmp:Thumbnails>
            <rdf:Alt>
               <rdf:li rdf:parseType="Resource">
                  <xmpGImg:width>228</xmpGImg:width>
                  <xmpGImg:height>256</xmpGImg:height>
                  <xmpGImg:format>JPEG</xmpGImg:format>
                  <xmpGImg:image>/9j/4AAQSkZJRgABAgEASABIAAD/7QAsUGhvdG9zaG9wIDMuMAA4QklNA+0AAAAAABAASAAAAAEA&#xA;AQBIAAAAAQAB/+4ADkFkb2JlAGTAAAAAAf/bAIQABgQEBAUEBgUFBgkGBQYJCwgGBggLDAoKCwoK&#xA;DBAMDAwMDAwQDA4PEA8ODBMTFBQTExwbGxscHx8fHx8fHx8fHwEHBwcNDA0YEBAYGhURFRofHx8f&#xA;Hx8fHx8fHx8fHx8fHx8fHx8fHx8fHx8fHx8fHx8fHx8fHx8fHx8fHx8fHx8f/8AAEQgBAADkAwER&#xA;AAIRAQMRAf/EAaIAAAAHAQEBAQEAAAAAAAAAAAQFAwIGAQAHCAkKCwEAAgIDAQEBAQEAAAAAAAAA&#xA;AQACAwQFBgcICQoLEAACAQMDAgQCBgcDBAIGAnMBAgMRBAAFIRIxQVEGE2EicYEUMpGhBxWxQiPB&#xA;UtHhMxZi8CRygvElQzRTkqKyY3PCNUQnk6OzNhdUZHTD0uIIJoMJChgZhJRFRqS0VtNVKBry4/PE&#xA;1OT0ZXWFlaW1xdXl9WZ2hpamtsbW5vY3R1dnd4eXp7fH1+f3OEhYaHiImKi4yNjo+Ck5SVlpeYmZ&#xA;qbnJ2en5KjpKWmp6ipqqusra6voRAAICAQIDBQUEBQYECAMDbQEAAhEDBCESMUEFURNhIgZxgZEy&#xA;obHwFMHR4SNCFVJicvEzJDRDghaSUyWiY7LCB3PSNeJEgxdUkwgJChgZJjZFGidkdFU38qOzwygp&#xA;0+PzhJSktMTU5PRldYWVpbXF1eX1RlZmdoaWprbG1ub2R1dnd4eXp7fH1+f3OEhYaHiImKi4yNjo&#xA;+DlJWWl5iZmpucnZ6fkqOkpaanqKmqq6ytrq+v/aAAwDAQACEQMRAD8A9U4q7FXYq7FXYq7FXYq7&#xA;FXYq7FXYq7FXYq7FXYq7FXYq7FXYq7FXYq7FXYq7FXYq7FXYq7FXYq7FXYq7FXYq7FXYq7FXYq7F&#xA;XYq7FXYq7FXYq7FXYq7FXYq7FXYq7FXYq7FXYq7FXYq7FXYq7FXYq7FXYq7FXYq7FXYq7FXYq7FX&#xA;Yq7FXYq7FXYq7FXYq7FXYq7FXYq7FXYq7FXYq7FXYq7FXYq7FXYq7FXYq7FXYq7FXYq7FXYq7FXY&#xA;q7FXYq7FXYq7FXYq7FXYq7FXYq7FXYq7FXYq7FXYq7FXYq7FXYq7FXYq7FXYq7FXYq7FXYq7FXYq&#xA;7FXYq7FXYq7FXYq7FXYq7FXYq7FXYq7FXYq7FXYq7FXYq7FXYq7FXYq7FXYq7FXYq7FXYq7FXYq7&#xA;FXYq7FXYq7FXYq7FXYq7FXYq7FXYq7FXYq7FXYq7FXYq7FXYq7FXYq7FXYq7FXYq7FXYq7FXYq7F&#xA;XYq7FXYq7FXYq7FXYq7FXYq7FXYq7FXYq7FXYq7FXYq7FXYq7FXYq7FXYq7FXYq7FXYq7FXYq7FX&#xA;Yq7FXYq7FXYq7FXYq7FXYq7FXYq7FXYq7FXYq7FXYq7FXYq7FXYq7FXYq7FXYq7FXYq7FXYq7FXY&#xA;q7FXYq7FXYq7FXYq7FXYq7FXYq7FXYq7FXYq7FXYq7FXYq7FXYq7FXYq7FXYq7FXYq7FXYq7FXYq&#xA;7FXYq7FXYq7FXYq7FXYq7FXYq7FXYq7FXYq7FXYq7FXYq7FXYq7FXYq7FXYq7FXYq7FXYq7FXYq7&#xA;FXYq7FXYq7FXYq7FXYq7FXYq7FXYq7FXYq7FXYq7FXYq7FXYq7FXYq7FXYq7FXYq7FXYq7FXYq7F&#xA;XYq7FXYq7FXYq7FXYq7FXYq7FXYq7FXYq7FXYq7FXYq7FXYq7FXYq7FXYq7FXYq7FXYq7FXYq7FX&#xA;Yq7FXYq7FXYq7FXYq7FXYq7FXYq7FXYq7FXYq7FXYq7FXYq7FXYq7FXYq7FXYq7FXYq7FXYq7FXY&#xA;q7FXYq7FXYq7FXYq7FXYq7FXYq7FXYq7FXYq7FXYq7FXYq7FXYq7FXYq7FXYq7FXYq7FXYq7FXYq&#xA;7FXYq7FXYq7FXYq7FXYq7FXYq7FXYq7FXYq7FXYq7FXYq7FXYq7FXYq7FXYq7FXYq7FXYq7FXYq7&#xA;FXYq7FXYq7FXYq7FXYq7FXYq7FXYq7FXYq7FXYq7FXYq7FXYq7FXYq7FXYq7FXYq7FXYq7FXYq7F&#xA;XYq7FXYq7FXYq7FXYq7FXYq7FXYq7FXYq7FXYq7FXYq7FXYq7FXYq7FXYq7FXYq7FXYq7FXYq7FX&#xA;Yq7FXYq7FXYq7FXYq7FXYq7FXYq7FXYq7FXYq7FXYq7FXYq7FXYq7FXYq7FXYq7FXYq7FXYq7FXY&#xA;q7FXYq7FXYq7FXYq7FXYq7FXYq7FXYq7FXYq7FXYq7FXYq7FXYq7FXYq7FXYq7FXYq7FXYq7FXYq&#xA;7FXYq7FXYq7FXYq7FXYq7FXYq7FXYq7FXYq7FXYq7FXYq7FXYq7FXYq7FXYq7FXYq7FXYq7FXYq7&#xA;FXYq7FXYq7FXYq7FXYq7FXYq7FXYq7FXYq7FXYq7FXYq7FXYq7FXYq7FXYq7FXYq7FXYq7FXYq7F&#xA;XYq7FXYq7FXYq7FXYq7FXYq7FXYq7FXYq7FXYq7FXYq7FXYq7FXYq7FXYq7FXYq7FXYq7FXYq7FX&#xA;Yq7FXYq7FXYq7FXYq7FXYq7FXYq7FXYq7FXYq7FXYq7FXYq7FXYq7FXYq7FXYq7FXYq7FXYq7FXY&#xA;q7FXYq7FXYq7FXYq7FXYq7FXYq7FXYq7FXYq7FXYq7FXYq7FXYq7FXYq7FXYq7FXYq7FXYq7FXYq&#xA;7FXYq7FXYq7FXYq7FXYq7FXYq7FXYq7FXYq7FXYq7FXYq7FXYq7FXYq7FXYq7FXYq7FXYq7FXYq7&#xA;FXYq7FXYq7FXYq7FXYq7FXYq7FXYq7FXYq7FXYq7FXYq7FXYq7FXYq7FXYq7FXYq7FXYq7FXYq7F&#xA;XYq7FXYq7FXYq7FXYq7FXYq7FXYq7FXYq7FXYq7FXYq7FXYq7FXYq7FXYq7FXYq7FXYq7FXYq7FX&#xA;Yq7FXYq7FXYq7FXYq7FXYq7FXYq7FXYq7FXYq7FXYq7FXYq7FXYq7FXYq7FXYq7FXYq7FXYq7FXY&#xA;q7FXYq7FXYq7FXYq7FXYq7FXYq7FXYq7FXYq7FXYq7FXYq7FXYq7FXYq7FXYq7FXYq7FXYq7FXYq&#xA;7FXYq7FXYq7FXYq7FXYq7FXYq7FXYq7FXYq7FXYq7FXYq7FXYq7FXYq7FXYq7FXYq7FXYq7FXYq7&#xA;FXYq7FXYq7FXYq7FXYq7FX//2Q==</xmpGImg:image>
               </rdf:li>
            </rdf:Alt>
         </xmp:Thumbnails>
      </rdf:Description>
      <rdf:Description rdf:about=""
            xmlns:xmpMM="http://ns.adobe.com/xap/1.0/mm/"
            xmlns:stRef="http://ns.adobe.com/xap/1.0/sType/ResourceRef#"
            xmlns:stEvt="http://ns.adobe.com/xap/1.0/sType/ResourceEvent#">
         <xmpMM:InstanceID>xmp.iid:02801174072068118083D4B3C42C17FD</xmpMM:InstanceID>
         <xmpMM:DocumentID>xmp.did:02801174072068118083D4B3C42C17FD</xmpMM:DocumentID>
         <xmpMM:OriginalDocumentID>uuid:5D20892493BFDB11914A8590D31508C8</xmpMM:OriginalDocumentID>
         <xmpMM:RenditionClass>proof:pdf</xmpMM:RenditionClass>
         <xmpMM:DerivedFrom rdf:parseType="Resource">
            <stRef:instanceID>xmp.iid:01801174072068118083D4B3C42C17FD</stRef:instanceID>
            <stRef:documentID>xmp.did:01801174072068118083D4B3C42C17FD</stRef:documentID>
            <stRef:originalDocumentID>uuid:5D20892493BFDB11914A8590D31508C8</stRef:originalDocumentID>
            <stRef:renditionClass>proof:pdf</stRef:renditionClass>
         </xmpMM:DerivedFrom>
         <xmpMM:History>
            <rdf:Seq>
               <rdf:li rdf:parseType="Resource">
                  <stEvt:action>saved</stEvt:action>
                  <stEvt:instanceID>xmp.iid:01801174072068118083D4B3C42C17FD</stEvt:instanceID>
                  <stEvt:when>2015-06-11T11:58:41+12:00</stEvt:when>
                  <stEvt:softwareAgent>Adobe Illustrator CS6 (Macintosh)</stEvt:softwareAgent>
                  <stEvt:changed>/</stEvt:changed>
               </rdf:li>
               <rdf:li rdf:parseType="Resource">
                  <stEvt:action>saved</stEvt:action>
                  <stEvt:instanceID>xmp.iid:02801174072068118083D4B3C42C17FD</stEvt:instanceID>
                  <stEvt:when>2015-06-11T11:59:31+12:00</stEvt:when>
                  <stEvt:softwareAgent>Adobe Illustrator CS6 (Macintosh)</stEvt:softwareAgent>
                  <stEvt:changed>/</stEvt:changed>
               </rdf:li>
            </rdf:Seq>
         </xmpMM:History>
      </rdf:Description>
      <rdf:Description rdf:about=""
            xmlns:illustrator="http://ns.adobe.com/illustrator/1.0/">
         <illustrator:StartupProfile>Print</illustrator:StartupProfile>
      </rdf:Description>
      <rdf:Description rdf:about=""
            xmlns:xmpTPg="http://ns.adobe.com/xap/1.0/t/pg/"
            xmlns:stDim="http://ns.adobe.com/xap/1.0/sType/Dimensions#"
            xmlns:xmpG="http://ns.adobe.com/xap/1.0/g/">
         <xmpTPg:HasVisibleOverprint>False</xmpTPg:HasVisibleOverprint>
         <xmpTPg:HasVisibleTransparency>False</xmpTPg:HasVisibleTransparency>
         <xmpTPg:NPages>1</xmpTPg:NPages>
         <xmpTPg:MaxPageSize rdf:parseType="Resource">
            <stDim:w>240.000488</stDim:w>
            <stDim:h>240.000000</stDim:h>
            <stDim:unit>Pixels</stDim:unit>
         </xmpTPg:MaxPageSize>
         <xmpTPg:SwatchGroups>
            <rdf:Seq>
               <rdf:li rdf:parseType="Resource">
                  <xmpG:groupName>Default Swatch Group</xmpG:groupName>
                  <xmpG:groupType>0</xmpG:groupType>
                  <xmpG:Colorants>
                     <rdf:Seq>
                        <rdf:li rdf:parseType="Resource">
                           <xmpG:swatchName>White</xmpG:swatchName>
                           <xmpG:mode>RGB</xmpG:mode>
                           <xmpG:type>PROCESS</xmpG:type>
                           <xmpG:red>255</xmpG:red>
                           <xmpG:green>255</xmpG:green>
                           <xmpG:blue>255</xmpG:blue>
                        </rdf:li>
                        <rdf:li rdf:parseType="Resource">
                           <xmpG:swatchName>Black</xmpG:swatchName>
                           <xmpG:mode>RGB</xmpG:mode>
                           <xmpG:type>PROCESS</xmpG:type>
                           <xmpG:red>35</xmpG:red>
                           <xmpG:green>31</xmpG:green>
                           <xmpG:blue>32</xmpG:blue>
                        </rdf:li>
                        <rdf:li rdf:parseType="Resource">
                           <xmpG:swatchName>CMYK Red</xmpG:swatchName>
                           <xmpG:mode>RGB</xmpG:mode>
                           <xmpG:type>PROCESS</xmpG:type>
                           <xmpG:red>237</xmpG:red>
                           <xmpG:green>28</xmpG:green>
                           <xmpG:blue>36</xmpG:blue>
                        </rdf:li>
                        <rdf:li rdf:parseType="Resource">
                           <xmpG:swatchName>CMYK Yellow</xmpG:swatchName>
                           <xmpG:mode>RGB</xmpG:mode>
                           <xmpG:type>PROCESS</xmpG:type>
                           <xmpG:red>255</xmpG:red>
                           <xmpG:green>242</xmpG:green>
                           <xmpG:blue>0</xmpG:blue>
                        </rdf:li>
                        <rdf:li rdf:parseType="Resource">
                           <xmpG:swatchName>CMYK Green</xmpG:swatchName>
                           <xmpG:mode>RGB</xmpG:mode>
                           <xmpG:type>PROCESS</xmpG:type>
                           <xmpG:red>0</xmpG:red>
                           <xmpG:green>166</xmpG:green>
                           <xmpG:blue>81</xmpG:blue>
                        </rdf:li>
                        <rdf:li rdf:parseType="Resource">
                           <xmpG:swatchName>CMYK Cyan</xmpG:swatchName>
                           <xmpG:mode>RGB</xmpG:mode>
                           <xmpG:type>PROCESS</xmpG:type>
                           <xmpG:red>0</xmpG:red>
                           <xmpG:green>174</xmpG:green>
                           <xmpG:blue>239</xmpG:blue>
                        </rdf:li>
                        <rdf:li rdf:parseType="Resource">
                           <xmpG:swatchName>CMYK Blue</xmpG:swatchName>
                           <xmpG:mode>RGB</xmpG:mode>
                           <xmpG:type>PROCESS</xmpG:type>
                           <xmpG:red>46</xmpG:red>
                           <xmpG:green>49</xmpG:green>
                           <xmpG:blue>146</xmpG:blue>
                        </rdf:li>
                        <rdf:li rdf:parseType="Resource">
                           <xmpG:swatchName>CMYK Magenta</xmpG:swatchName>
                           <xmpG:mode>RGB</xmpG:mode>
                           <xmpG:type>PROCESS</xmpG:type>
                           <xmpG:red>236</xmpG:red>
                           <xmpG:green>0</xmpG:green>
                           <xmpG:blue>140</xmpG:blue>
                        </rdf:li>
                        <rdf:li rdf:parseType="Resource">
                           <xmpG:swatchName>C=15 M=100 Y=90 K=10</xmpG:swatchName>
                           <xmpG:mode>RGB</xmpG:mode>
                           <xmpG:type>PROCESS</xmpG:type>
                           <xmpG:red>190</xmpG:red>
                           <xmpG:green>30</xmpG:green>
                           <xmpG:blue>45</xmpG:blue>
                        </rdf:li>
                        <rdf:li rdf:parseType="Resource">
                           <xmpG:swatchName>C=0 M=90 Y=85 K=0</xmpG:swatchName>
                           <xmpG:mode>RGB</xmpG:mode>
                           <xmpG:type>PROCESS</xmpG:type>
                           <xmpG:red>239</xmpG:red>
                           <xmpG:green>65</xmpG:green>
                           <xmpG:blue>54</xmpG:blue>
                        </rdf:li>
                        <rdf:li rdf:parseType="Resource">
                           <xmpG:swatchName>C=0 M=80 Y=95 K=0</xmpG:swatchName>
                           <xmpG:mode>RGB</xmpG:mode>
                           <xmpG:type>PROCESS</xmpG:type>
                           <xmpG:red>241</xmpG:red>
                           <xmpG:green>90</xmpG:green>
                           <xmpG:blue>41</xmpG:blue>
                        </rdf:li>
                        <rdf:li rdf:parseType="Resource">
                           <xmpG:swatchName>C=0 M=50 Y=100 K=0</xmpG:swatchName>
                           <xmpG:mode>RGB</xmpG:mode>
                           <xmpG:type>PROCESS</xmpG:type>
                           <xmpG:red>247</xmpG:red>
                           <xmpG:green>148</xmpG:green>
                           <xmpG:blue>30</xmpG:blue>
                        </rdf:li>
                        <rdf:li rdf:parseType="Resource">
                           <xmpG:swatchName>C=0 M=35 Y=85 K=0</xmpG:swatchName>
                           <xmpG:mode>RGB</xmpG:mode>
                           <xmpG:type>PROCESS</xmpG:type>
                           <xmpG:red>251</xmpG:red>
                           <xmpG:green>176</xmpG:green>
                           <xmpG:blue>64</xmpG:blue>
                        </rdf:li>
                        <rdf:li rdf:parseType="Resource">
                           <xmpG:swatchName>C=5 M=0 Y=90 K=0</xmpG:swatchName>
                           <xmpG:mode>RGB</xmpG:mode>
                           <xmpG:type>PROCESS</xmpG:type>
                           <xmpG:red>249</xmpG:red>
                           <xmpG:green>237</xmpG:green>
                           <xmpG:blue>50</xmpG:blue>
                        </rdf:li>
                        <rdf:li rdf:parseType="Resource">
                           <xmpG:swatchName>C=20 M=0 Y=100 K=0</xmpG:swatchName>
                           <xmpG:mode>RGB</xmpG:mode>
                           <xmpG:type>PROCESS</xmpG:type>
                           <xmpG:red>215</xmpG:red>
                           <xmpG:green>223</xmpG:green>
                           <xmpG:blue>35</xmpG:blue>
                        </rdf:li>
                        <rdf:li rdf:parseType="Resource">
                           <xmpG:swatchName>C=50 M=0 Y=100 K=0</xmpG:swatchName>
                           <xmpG:mode>RGB</xmpG:mode>
                           <xmpG:type>PROCESS</xmpG:type>
                           <xmpG:red>141</xmpG:red>
                           <xmpG:green>198</xmpG:green>
                           <xmpG:blue>63</xmpG:blue>
                        </rdf:li>
                        <rdf:li rdf:parseType="Resource">
                           <xmpG:swatchName>C=75 M=0 Y=100 K=0</xmpG:swatchName>
                           <xmpG:mode>RGB</xmpG:mode>
                           <xmpG:type>PROCESS</xmpG:type>
                           <xmpG:red>57</xmpG:red>
                           <xmpG:green>181</xmpG:green>
                           <xmpG:blue>74</xmpG:blue>
                        </rdf:li>
                        <rdf:li rdf:parseType="Resource">
                           <xmpG:swatchName>C=85 M=10 Y=100 K=10</xmpG:swatchName>
                           <xmpG:mode>RGB</xmpG:mode>
                           <xmpG:type>PROCESS</xmpG:type>
                           <xmpG:red>0</xmpG:red>
                           <xmpG:green>148</xmpG:green>
                           <xmpG:blue>68</xmpG:blue>
                        </rdf:li>
                        <rdf:li rdf:parseType="Resource">
                           <xmpG:swatchName>C=90 M=30 Y=95 K=30</xmpG:swatchName>
                           <xmpG:mode>RGB</xmpG:mode>
                           <xmpG:type>PROCESS</xmpG:type>
                           <xmpG:red>0</xmpG:red>
                           <xmpG:green>104</xmpG:green>
                           <xmpG:blue>56</xmpG:blue>
                        </rdf:li>
                        <rdf:li rdf:parseType="Resource">
                           <xmpG:swatchName>C=75 M=0 Y=75 K=0</xmpG:swatchName>
                           <xmpG:mode>RGB</xmpG:mode>
                           <xmpG:type>PROCESS</xmpG:type>
                           <xmpG:red>43</xmpG:red>
                           <xmpG:green>182</xmpG:green>
                           <xmpG:blue>115</xmpG:blue>
                        </rdf:li>
                        <rdf:li rdf:parseType="Resource">
                           <xmpG:swatchName>C=80 M=10 Y=45 K=0</xmpG:swatchName>
                           <xmpG:mode>RGB</xmpG:mode>
                           <xmpG:type>PROCESS</xmpG:type>
                           <xmpG:red>0</xmpG:red>
                           <xmpG:green>167</xmpG:green>
                           <xmpG:blue>157</xmpG:blue>
                        </rdf:li>
                        <rdf:li rdf:parseType="Resource">
                           <xmpG:swatchName>C=70 M=15 Y=0 K=0</xmpG:swatchName>
                           <xmpG:mode>RGB</xmpG:mode>
                           <xmpG:type>PROCESS</xmpG:type>
                           <xmpG:red>39</xmpG:red>
                           <xmpG:green>170</xmpG:green>
                           <xmpG:blue>225</xmpG:blue>
                        </rdf:li>
                        <rdf:li rdf:parseType="Resource">
                           <xmpG:swatchName>C=85 M=50 Y=0 K=0</xmpG:swatchName>
                           <xmpG:mode>RGB</xmpG:mode>
                           <xmpG:type>PROCESS</xmpG:type>
                           <xmpG:red>28</xmpG:red>
                           <xmpG:green>117</xmpG:green>
                           <xmpG:blue>188</xmpG:blue>
                        </rdf:li>
                        <rdf:li rdf:parseType="Resource">
                           <xmpG:swatchName>C=100 M=95 Y=5 K=0</xmpG:swatchName>
                           <xmpG:mode>RGB</xmpG:mode>
                           <xmpG:type>PROCESS</xmpG:type>
                           <xmpG:red>43</xmpG:red>
                           <xmpG:green>57</xmpG:green>
                           <xmpG:blue>144</xmpG:blue>
                        </rdf:li>
                        <rdf:li rdf:parseType="Resource">
                           <xmpG:swatchName>C=100 M=100 Y=25 K=25</xmpG:swatchName>
                           <xmpG:mode>RGB</xmpG:mode>
                           <xmpG:type>PROCESS</xmpG:type>
                           <xmpG:red>38</xmpG:red>
                           <xmpG:green>34</xmpG:green>
                           <xmpG:blue>98</xmpG:blue>
                        </rdf:li>
                        <rdf:li rdf:parseType="Resource">
                           <xmpG:swatchName>C=75 M=100 Y=0 K=0</xmpG:swatchName>
                           <xmpG:mode>RGB</xmpG:mode>
                           <xmpG:type>PROCESS</xmpG:type>
                           <xmpG:red>102</xmpG:red>
                           <xmpG:green>45</xmpG:green>
                           <xmpG:blue>145</xmpG:blue>
                        </rdf:li>
                        <rdf:li rdf:parseType="Resource">
                           <xmpG:swatchName>C=50 M=100 Y=0 K=0</xmpG:swatchName>
                           <xmpG:mode>RGB</xmpG:mode>
                           <xmpG:type>PROCESS</xmpG:type>
                           <xmpG:red>146</xmpG:red>
                           <xmpG:green>39</xmpG:green>
                           <xmpG:blue>143</xmpG:blue>
                        </rdf:li>
                        <rdf:li rdf:parseType="Resource">
                           <xmpG:swatchName>C=35 M=100 Y=35 K=10</xmpG:swatchName>
                           <xmpG:mode>RGB</xmpG:mode>
                           <xmpG:type>PROCESS</xmpG:type>
                           <xmpG:red>158</xmpG:red>
                           <xmpG:green>31</xmpG:green>
                           <xmpG:blue>99</xmpG:blue>
                        </rdf:li>
                        <rdf:li rdf:parseType="Resource">
                           <xmpG:swatchName>C=10 M=100 Y=50 K=0</xmpG:swatchName>
                           <xmpG:mode>RGB</xmpG:mode>
                           <xmpG:type>PROCESS</xmpG:type>
                           <xmpG:red>218</xmpG:red>
                           <xmpG:green>28</xmpG:green>
                           <xmpG:blue>92</xmpG:blue>
                        </rdf:li>
                        <rdf:li rdf:parseType="Resource">
                           <xmpG:swatchName>C=0 M=95 Y=20 K=0</xmpG:swatchName>
                           <xmpG:mode>RGB</xmpG:mode>
                           <xmpG:type>PROCESS</xmpG:type>
                           <xmpG:red>238</xmpG:red>
                           <xmpG:green>42</xmpG:green>
                           <xmpG:blue>123</xmpG:blue>
                        </rdf:li>
                        <rdf:li rdf:parseType="Resource">
                           <xmpG:swatchName>C=25 M=25 Y=40 K=0</xmpG:swatchName>
                           <xmpG:mode>RGB</xmpG:mode>
                           <xmpG:type>PROCESS</xmpG:type>
                           <xmpG:red>194</xmpG:red>
                           <xmpG:green>181</xmpG:green>
                           <xmpG:blue>155</xmpG:blue>
                        </rdf:li>
                        <rdf:li rdf:parseType="Resource">
                           <xmpG:swatchName>C=40 M=45 Y=50 K=5</xmpG:swatchName>
                           <xmpG:mode>RGB</xmpG:mode>
                           <xmpG:type>PROCESS</xmpG:type>
                           <xmpG:red>155</xmpG:red>
                           <xmpG:green>133</xmpG:green>
                           <xmpG:blue>121</xmpG:blue>
                        </rdf:li>
                        <rdf:li rdf:parseType="Resource">
                           <xmpG:swatchName>C=50 M=50 Y=60 K=25</xmpG:swatchName>
                           <xmpG:mode>RGB</xmpG:mode>
                           <xmpG:type>PROCESS</xmpG:type>
                           <xmpG:red>114</xmpG:red>
                           <xmpG:green>102</xmpG:green>
                           <xmpG:blue>88</xmpG:blue>
                        </rdf:li>
                        <rdf:li rdf:parseType="Resource">
                           <xmpG:swatchName>C=55 M=60 Y=65 K=40</xmpG:swatchName>
                           <xmpG:mode>RGB</xmpG:mode>
                           <xmpG:type>PROCESS</xmpG:type>
                           <xmpG:red>89</xmpG:red>
                           <xmpG:green>74</xmpG:green>
                           <xmpG:blue>66</xmpG:blue>
                        </rdf:li>
                        <rdf:li rdf:parseType="Resource">
                           <xmpG:swatchName>C=25 M=40 Y=65 K=0</xmpG:swatchName>
                           <xmpG:mode>RGB</xmpG:mode>
                           <xmpG:type>PROCESS</xmpG:type>
                           <xmpG:red>196</xmpG:red>
                           <xmpG:green>154</xmpG:green>
                           <xmpG:blue>108</xmpG:blue>
                        </rdf:li>
                        <rdf:li rdf:parseType="Resource">
                           <xmpG:swatchName>C=30 M=50 Y=75 K=10</xmpG:swatchName>
                           <xmpG:mode>RGB</xmpG:mode>
                           <xmpG:type>PROCESS</xmpG:type>
                           <xmpG:red>169</xmpG:red>
                           <xmpG:green>124</xmpG:green>
                           <xmpG:blue>80</xmpG:blue>
                        </rdf:li>
                        <rdf:li rdf:parseType="Resource">
                           <xmpG:swatchName>C=35 M=60 Y=80 K=25</xmpG:swatchName>
                           <xmpG:mode>RGB</xmpG:mode>
                           <xmpG:type>PROCESS</xmpG:type>
                           <xmpG:red>139</xmpG:red>
                           <xmpG:green>94</xmpG:green>
                           <xmpG:blue>60</xmpG:blue>
                        </rdf:li>
                        <rdf:li rdf:parseType="Resource">
                           <xmpG:swatchName>C=40 M=65 Y=90 K=35</xmpG:swatchName>
                           <xmpG:mode>RGB</xmpG:mode>
                           <xmpG:type>PROCESS</xmpG:type>
                           <xmpG:red>117</xmpG:red>
                           <xmpG:green>76</xmpG:green>
                           <xmpG:blue>41</xmpG:blue>
                        </rdf:li>
                        <rdf:li rdf:parseType="Resource">
                           <xmpG:swatchName>C=40 M=70 Y=100 K=50</xmpG:swatchName>
                           <xmpG:mode>RGB</xmpG:mode>
                           <xmpG:type>PROCESS</xmpG:type>
                           <xmpG:red>96</xmpG:red>
                           <xmpG:green>57</xmpG:green>
                           <xmpG:blue>19</xmpG:blue>
                        </rdf:li>
                        <rdf:li rdf:parseType="Resource">
                           <xmpG:swatchName>C=50 M=70 Y=80 K=70</xmpG:swatchName>
                           <xmpG:mode>RGB</xmpG:mode>
                           <xmpG:type>PROCESS</xmpG:type>
                           <xmpG:red>60</xmpG:red>
                           <xmpG:green>36</xmpG:green>
                           <xmpG:blue>21</xmpG:blue>
                        </rdf:li>
                     </rdf:Seq>
                  </xmpG:Colorants>
               </rdf:li>
               <rdf:li rdf:parseType="Resource">
                  <xmpG:groupName>Grays</xmpG:groupName>
                  <xmpG:groupType>1</xmpG:groupType>
                  <xmpG:Colorants>
                     <rdf:Seq>
                        <rdf:li rdf:parseType="Resource">
                           <xmpG:swatchName>C=0 M=0 Y=0 K=100</xmpG:swatchName>
                           <xmpG:mode>RGB</xmpG:mode>
                           <xmpG:type>PROCESS</xmpG:type>
                           <xmpG:red>35</xmpG:red>
                           <xmpG:green>31</xmpG:green>
                           <xmpG:blue>32</xmpG:blue>
                        </rdf:li>
                        <rdf:li rdf:parseType="Resource">
                           <xmpG:swatchName>C=0 M=0 Y=0 K=90</xmpG:swatchName>
                           <xmpG:mode>RGB</xmpG:mode>
                           <xmpG:type>PROCESS</xmpG:type>
                           <xmpG:red>65</xmpG:red>
                           <xmpG:green>64</xmpG:green>
                           <xmpG:blue>66</xmpG:blue>
                        </rdf:li>
                        <rdf:li rdf:parseType="Resource">
                           <xmpG:swatchName>C=0 M=0 Y=0 K=80</xmpG:swatchName>
                           <xmpG:mode>RGB</xmpG:mode>
                           <xmpG:type>PROCESS</xmpG:type>
                           <xmpG:red>88</xmpG:red>
                           <xmpG:green>89</xmpG:green>
                           <xmpG:blue>91</xmpG:blue>
                        </rdf:li>
                        <rdf:li rdf:parseType="Resource">
                           <xmpG:swatchName>C=0 M=0 Y=0 K=70</xmpG:swatchName>
                           <xmpG:mode>RGB</xmpG:mode>
                           <xmpG:type>PROCESS</xmpG:type>
                           <xmpG:red>109</xmpG:red>
                           <xmpG:green>110</xmpG:green>
                           <xmpG:blue>113</xmpG:blue>
                        </rdf:li>
                        <rdf:li rdf:parseType="Resource">
                           <xmpG:swatchName>C=0 M=0 Y=0 K=60</xmpG:swatchName>
                           <xmpG:mode>RGB</xmpG:mode>
                           <xmpG:type>PROCESS</xmpG:type>
                           <xmpG:red>128</xmpG:red>
                           <xmpG:green>130</xmpG:green>
                           <xmpG:blue>133</xmpG:blue>
                        </rdf:li>
                        <rdf:li rdf:parseType="Resource">
                           <xmpG:swatchName>C=0 M=0 Y=0 K=50</xmpG:swatchName>
                           <xmpG:mode>RGB</xmpG:mode>
                           <xmpG:type>PROCESS</xmpG:type>
                           <xmpG:red>147</xmpG:red>
                           <xmpG:green>149</xmpG:green>
                           <xmpG:blue>152</xmpG:blue>
                        </rdf:li>
                        <rdf:li rdf:parseType="Resource">
                           <xmpG:swatchName>C=0 M=0 Y=0 K=40</xmpG:swatchName>
                           <xmpG:mode>RGB</xmpG:mode>
                           <xmpG:type>PROCESS</xmpG:type>
                           <xmpG:red>167</xmpG:red>
                           <xmpG:green>169</xmpG:green>
                           <xmpG:blue>172</xmpG:blue>
                        </rdf:li>
                        <rdf:li rdf:parseType="Resource">
                           <xmpG:swatchName>C=0 M=0 Y=0 K=30</xmpG:swatchName>
                           <xmpG:mode>RGB</xmpG:mode>
                           <xmpG:type>PROCESS</xmpG:type>
                           <xmpG:red>188</xmpG:red>
                           <xmpG:green>190</xmpG:green>
                           <xmpG:blue>192</xmpG:blue>
                        </rdf:li>
                        <rdf:li rdf:parseType="Resource">
                           <xmpG:swatchName>C=0 M=0 Y=0 K=20</xmpG:swatchName>
                           <xmpG:mode>RGB</xmpG:mode>
                           <xmpG:type>PROCESS</xmpG:type>
                           <xmpG:red>209</xmpG:red>
                           <xmpG:green>211</xmpG:green>
                           <xmpG:blue>212</xmpG:blue>
                        </rdf:li>
                        <rdf:li rdf:parseType="Resource">
                           <xmpG:swatchName>C=0 M=0 Y=0 K=10</xmpG:swatchName>
                           <xmpG:mode>RGB</xmpG:mode>
                           <xmpG:type>PROCESS</xmpG:type>
                           <xmpG:red>230</xmpG:red>
                           <xmpG:green>231</xmpG:green>
                           <xmpG:blue>232</xmpG:blue>
                        </rdf:li>
                        <rdf:li rdf:parseType="Resource">
                           <xmpG:swatchName>C=0 M=0 Y=0 K=5</xmpG:swatchName>
                           <xmpG:mode>RGB</xmpG:mode>
                           <xmpG:type>PROCESS</xmpG:type>
                           <xmpG:red>241</xmpG:red>
                           <xmpG:green>242</xmpG:green>
                           <xmpG:blue>242</xmpG:blue>
                        </rdf:li>
                     </rdf:Seq>
                  </xmpG:Colorants>
               </rdf:li>
               <rdf:li rdf:parseType="Resource">
                  <xmpG:groupName>Brights</xmpG:groupName>
                  <xmpG:groupType>1</xmpG:groupType>
                  <xmpG:Colorants>
                     <rdf:Seq>
                        <rdf:li rdf:parseType="Resource">
                           <xmpG:swatchName>C=0 M=100 Y=100 K=0</xmpG:swatchName>
                           <xmpG:mode>RGB</xmpG:mode>
                           <xmpG:type>PROCESS</xmpG:type>
                           <xmpG:red>237</xmpG:red>
                           <xmpG:green>28</xmpG:green>
                           <xmpG:blue>36</xmpG:blue>
                        </rdf:li>
                        <rdf:li rdf:parseType="Resource">
                           <xmpG:swatchName>C=0 M=75 Y=100 K=0</xmpG:swatchName>
                           <xmpG:mode>RGB</xmpG:mode>
                           <xmpG:type>PROCESS</xmpG:type>
                           <xmpG:red>242</xmpG:red>
                           <xmpG:green>101</xmpG:green>
                           <xmpG:blue>34</xmpG:blue>
                        </rdf:li>
                        <rdf:li rdf:parseType="Resource">
                           <xmpG:swatchName>C=0 M=10 Y=95 K=0</xmpG:swatchName>
                           <xmpG:mode>RGB</xmpG:mode>
                           <xmpG:type>PROCESS</xmpG:type>
                           <xmpG:red>255</xmpG:red>
                           <xmpG:green>222</xmpG:green>
                           <xmpG:blue>23</xmpG:blue>
                        </rdf:li>
                        <rdf:li rdf:parseType="Resource">
                           <xmpG:swatchName>C=85 M=10 Y=100 K=0</xmpG:swatchName>
                           <xmpG:mode>RGB</xmpG:mode>
                           <xmpG:type>PROCESS</xmpG:type>
                           <xmpG:red>0</xmpG:red>
                           <xmpG:green>161</xmpG:green>
                           <xmpG:blue>75</xmpG:blue>
                        </rdf:li>
                        <rdf:li rdf:parseType="Resource">
                           <xmpG:swatchName>C=100 M=90 Y=0 K=0</xmpG:swatchName>
                           <xmpG:mode>RGB</xmpG:mode>
                           <xmpG:type>PROCESS</xmpG:type>
                           <xmpG:red>33</xmpG:red>
                           <xmpG:green>64</xmpG:green>
                           <xmpG:blue>154</xmpG:blue>
                        </rdf:li>
                        <rdf:li rdf:parseType="Resource">
                           <xmpG:swatchName>C=60 M=90 Y=0 K=0</xmpG:swatchName>
                           <xmpG:mode>RGB</xmpG:mode>
                           <xmpG:type>PROCESS</xmpG:type>
                           <xmpG:red>127</xmpG:red>
                           <xmpG:green>63</xmpG:green>
                           <xmpG:blue>152</xmpG:blue>
                        </rdf:li>
                     </rdf:Seq>
                  </xmpG:Colorants>
               </rdf:li>
            </rdf:Seq>
         </xmpTPg:SwatchGroups>
      </rdf:Description>
      <rdf:Description rdf:about=""
            xmlns:pdf="http://ns.adobe.com/pdf/1.3/">
         <pdf:Producer>Adobe PDF library 10.01</pdf:Producer>
      </rdf:Description>
   </rdf:RDF>
</x:xmpmeta>
                                                                                                    
                                                                                                    
                                                                                                    
                                                                                                    
                                                                                                    
                                                                                                    
                                                                                                    
                                                                                                    
                                                                                                    
                                                                                                    
                                                                                                    
                                                                                                    
                                                                                                    
                                                                                                    
                                                                                                    
                                                                                                    
                                                                                                    
                                                                                                    
                                                                                                    
                                                                                                    
                           
<?xpacket end="w"?>
	</metadata>
<g id="Layer_1_1_">
	<g>
		<path fill="#FFFFFF" d="M79.279,222.683c0-8.162-5.087-14.283-12.659-15.307c-2.301-0.294-5.229-0.491-8.847-0.491H47.458v32.624
			h7.873c5.427,0,7.232-0.1,10.312-0.638c2.545-0.446,4.942-1.423,6.995-2.885C76.89,232.998,79.279,228.212,79.279,222.683
			 M70.333,222.638c0.003,4.591-2.641,8.36-6.839,9.628c-2.152,0.69-2.938,0.786-6.262,0.786h-1.274v-19.859h2.053
			c3.568,0,4.308,0.05,6.014,0.539c1.123,0.301,2.245,0.93,3.222,1.766C69.311,217.207,70.333,219.653,70.333,222.638"/>
		<path fill="#FFFFFF" d="M99.832,215.936c-0.825-0.386-1.168-0.436-2.244-0.436c-3.034,0-5.526,1.855-7.328,5.374l-0.004-4.938
			h-7.529v23.576h7.876l-0.007-10.272c1.954-4.152,4.454-6.847,6.458-6.847c0.347,0,0.591,0.053,1.419,0.194L99.832,215.936z"/>
		<path fill="#FFFFFF" d="M111.433,209.38c0-2.343-1.958-4.251-4.301-4.251c-2.343,0-4.255,1.904-4.255,4.251
			c0,2.4,1.912,4.312,4.258,4.312C109.482,213.691,111.433,211.779,111.433,209.38 M111.05,239.512l-0.003-23.576h-7.771v23.576
			H111.05z"/>
		<path fill="#FFFFFF" d="M139.646,239.516v-14.631c0-4.351-0.446-6.305-1.717-7.717c-1.08-1.232-2.882-1.962-4.836-1.962
			c-2.987,0-6.305,1.618-8.85,4.354v-3.621h-7.483l0.003,23.576l7.77,0.003v-14.035c1.568-1.763,3.721-3.084,5.095-3.084
			c1.214,0,2.003,0.825,2.092,2.248c0.05,0.577,0.099,1.905,0.099,2.684v12.188h7.827V239.516z"/>
		<polygon fill="#FFFFFF" points="169.378,239.516 160.528,226.407 168.794,215.939 159.307,215.939 152.655,225.09 
			152.655,204.498 144.783,204.498 144.786,239.516 152.659,239.516 152.655,227.724 159.848,239.516 		"/>
		<path fill="#FFFFFF" d="M190.122,231.834c0-1.81-0.735-3.614-2.007-4.74c-0.974-0.885-2.148-1.564-3.423-2.054
			c-0.383-0.148-1.649-0.584-3.809-1.369c-1.023-0.344-1.568-0.833-1.568-1.42c0-0.971,1.426-1.564,4.063-1.564
			c1.313,0,2.878,0.193,4.736,0.534l1.076-5.08c-2.301-0.541-4.644-0.786-6.843-0.786c-6.647,0-11.098,3.088-11.098,7.679
			c0,1.763,0.779,3.525,2.148,4.648c1.52,1.32,2.694,1.858,6.946,3.32c0.977,0.343,1.465,0.732,1.465,1.324
			c0,1.175-1.713,1.762-4.938,1.762c-1.519,0-3.029-0.105-5.278-0.442l-1.218,5.477c2.492,0.591,5.126,0.878,7.523,0.878
			C185.477,239.997,190.122,236.917,190.122,231.834"/>
		<path fill="#FFFFFF" d="M206.006,214.354l-1.084-7.345h-2.241l-1.376,4.18l-1.525-4.18h-2.283l-0.949,7.345h2.067l0.357-3.632
			l1.313,3.632h1.877l1.234-3.632l0.443,3.632H206.006z M196.759,208.512v-1.507h-6.68v1.508h2.251v5.838h2.244v-5.838
			L196.759,208.512L196.759,208.512z"/>
		<path fill="#FFFFFF" d="M42.768,187.789c0-2.742-1.268-5.384-3.275-6.898c-1.61-1.18-3.274-1.955-7.183-3.275
			c-2.984-0.977-3.812-1.419-4.5-2.201c-0.248-0.345-0.393-0.68-0.393-1.072c0-1.763,2.587-2.744,7.086-2.744
			c1.862,0,2.79,0.053,5.668,0.492l1.072-6.113c-3.03-0.726-5.274-1.022-7.964-1.022c-8.896,0-14.524,3.961-14.524,10.219
			c0,2.737,1.373,5.525,3.532,7.087c1.657,1.229,3.119,1.862,6.839,3.038c3.515,1.125,4.591,1.904,4.591,3.37
			c0,2.049-2.641,3.231-7.285,3.231c-1.604,0-3.317-0.202-6.255-0.641l-0.98-0.149l-1.264,6.511
			c2.538,0.732,6.407,1.271,9.678,1.271C36.86,198.888,42.768,194.579,42.768,187.789"/>
		<path fill="#FFFFFF" d="M62.486,197.854v-5.319c-1.664,0.239-2.248,0.289-2.889,0.289c-1.066,0-2.049-0.244-2.637-0.637
			c-0.587-0.347-0.881-1.022-0.881-2.053v-1.474v-8.944h6.408v-4.985h-6.408v-7.776h-7.869v7.776h-4.454l0.007,4.979l4.446,0.007
			v11.64c0,3.373,0.732,5.132,2.496,6.208c1.367,0.833,3.324,1.324,5.571,1.324C58.33,198.888,60.436,198.544,62.486,197.854"/>
		<path fill="#FFFFFF" d="M89.333,197.67l-0.389-4.503l-0.492,0.053c-0.294,0.05-0.542,0.096-0.782,0.096
			c-0.683,0-1.027-0.148-1.367-0.542c-0.194-0.29-0.344-0.683-0.344-1.072v-9.777c0-3.179-0.446-4.645-1.759-5.872
			c-1.374-1.317-3.282-1.947-5.87-1.947c-3.713,0-8.457,1.508-12.17,3.862l2.34,4.687l0.687-0.332
			c1.613-0.786,2.049-0.98,3.132-1.327c0.535-0.198,1.066-0.344,1.657-0.489c0.641-0.148,1.42-0.251,1.912-0.251
			c1.71,0,2.294,0.645,2.294,2.542v0.251c-8.263,1.564-12.762,4.935-12.762,9.636c0.003,3.469,2.743,6.209,6.212,6.209
			c2.152,0,4.988-1.271,7.186-3.226c0.684,2.199,2.393,3.226,5.325,3.226C85.962,198.888,87.188,198.587,89.333,197.67
			 M78.235,191.457c-1.515,1.122-2.588,1.614-3.519,1.614c-1.027,0-1.855-0.783-1.855-1.767c0-1.71,2.049-3.218,5.374-4.057V191.457
			z"/>
		<path fill="#FFFFFF" d="M115.549,198.3l-0.003-14.616c0-4.361-0.439-6.309-1.709-7.734c-1.077-1.215-2.886-1.947-4.844-1.947
			c-2.983,0-6.304,1.61-8.85,4.347v-3.621H92.67V198.3h7.774v-14.036c1.561-1.763,3.713-3.075,5.077-3.075
			c1.228,0,2.007,0.828,2.106,2.24c0.05,0.598,0.096,1.915,0.096,2.698V198.3H115.549L115.549,198.3z"/>
		<path fill="#FFFFFF" d="M144.304,198.303l-0.004-35.014h-7.823v13.835c-1.076-1.122-1.564-1.516-2.389-2
			c-1.229-0.683-2.793-1.122-4.206-1.122c-6.206,0-10.509,5.477-10.509,13.292c0,6.903,3.614,11.646,8.892,11.646
			c1.66,0,3.327-0.488,4.846-1.323c1.313-0.727,2.099-1.416,3.714-3.267v3.957h7.479V198.303L144.304,198.303z M136.477,189.549
			c-1.564,1.812-3.022,2.641-4.584,2.641c-2.602,0-4.406-2.442-4.406-5.968c0-3.564,1.666-5.812,4.301-5.812
			c1.76,0,3.225,0.828,4.69,2.736L136.477,189.549L136.477,189.549z"/>
		<path fill="#FFFFFF" d="M171.983,197.673l-0.39-4.503l-0.492,0.05c-0.29,0.054-0.541,0.095-0.782,0.095
			c-0.68,0-1.022-0.145-1.37-0.541c-0.191-0.294-0.34-0.683-0.34-1.073v-9.776c0-3.183-0.438-4.648-1.762-5.873
			c-1.374-1.316-3.275-1.95-5.866-1.95c-3.714,0-8.461,1.511-12.174,3.865l2.347,4.688l0.684-0.336
			c1.61-0.783,2.049-0.978,3.129-1.324c0.538-0.198,1.08-0.344,1.66-0.489c0.641-0.148,1.423-0.251,1.908-0.251
			c1.72,0,2.304,0.642,2.304,2.546v0.248c-8.262,1.564-12.765,4.938-12.765,9.636c0,3.469,2.74,6.212,6.213,6.212
			c2.146,0,4.984-1.274,7.183-3.229c0.68,2.199,2.396,3.229,5.328,3.229C168.617,198.895,169.838,198.59,171.983,197.673
			 M160.893,191.457c-1.522,1.126-2.595,1.618-3.526,1.618c-1.022,0-1.858-0.776-1.858-1.764c0-1.713,2.053-3.225,5.384-4.056
			L160.893,191.457L160.893,191.457z"/>
		<path fill="#FFFFFF" d="M191.942,174.741c-0.836-0.399-1.172-0.449-2.252-0.449c-3.03,0-5.519,1.858-7.331,5.381v-4.942h-7.529
			l0.004,23.572h7.873v-10.269c1.954-4.156,4.449-6.843,6.453-6.843c0.337,0,0.591,0.046,1.416,0.194L191.942,174.741z"/>
		<path fill="#FFFFFF" d="M217.525,198.308l-0.004-35.019h-7.83v13.838c-1.069-1.121-1.564-1.515-2.394-2
			c-1.221-0.683-2.785-1.122-4.202-1.122c-6.208,0-10.51,5.48-10.51,13.301c0,6.896,3.618,11.639,8.893,11.639
			c1.664,0,3.327-0.488,4.843-1.323c1.32-0.73,2.099-1.416,3.714-3.268v3.958h7.49V198.308L217.525,198.308z M209.695,189.552
			c-1.565,1.813-3.03,2.645-4.592,2.645c-2.592,0-4.404-2.45-4.404-5.968c0-3.568,1.664-5.816,4.305-5.816
			c1.764,0,3.222,0.828,4.691,2.736V189.552z"/>
		<path fill="#FFFFFF" d="M21.17,0.286c-5.193,1.285-8.372,6.545-7.083,11.745l30.175,122.015l-0.291-2.326
			c0,9.208,7.491,16.691,16.694,16.699l122.524,0.003c9.211,0,16.702-7.49,16.702-16.694l-0.22,2.039l26.302-122.004
			c1.147-5.239-2.198-10.405-7.427-11.534c-5.246-1.132-10.411,2.195-11.529,7.438c0,0-25.889,120.04-26.167,121.346
			c-4.429,0-113.449-0.007-117.842-0.007C62.818,128.262,32.93,7.373,32.93,7.373C31.638,2.175,26.381-1,21.17,0.286"/>
		<path fill="#FFFFFF" d="M186.625,33.284h-6.92L53.186,33.281l1.692,6.921l17.361,70.218l-0.17-1.346
			c0,5.3,4.318,9.615,9.614,9.615l78.867,0.003c5.296,0,9.604-4.314,9.604-9.618l-0.113,1.196L186.625,33.284z"/>
		<path fill="#FFFFFF" d="M65.098,7.415h-4.333L50.708,25.468h5.094l1.494-2.878l10.085-0.032l1.451,2.91h5.781L65.098,7.415z
			 M65.926,19.705h-7.069l3.635-6.719L65.926,19.705z"/>
		<path fill="#FFFFFF" d="M82.646,10.495c0.712-0.04,1.423-0.135,2.138-0.135c2.839,0,3.688,1.119,3.688,2.602
			c0,1.477-0.85,2.602-3.688,2.602c-0.715,0-1.426-0.021-2.138-0.071V10.495z M82.653,18.441c1.08,0.028,2.159,0.075,3.494,0.075
			c5.661,0,7.434-2.443,7.434-5.396c0-3.819-2.134-5.71-9.183-5.71h-7.09v18.057h5.345V18.441z"/>
		<path fill="#FFFFFF" d="M102.398,10.495c0.708-0.036,1.426-0.135,2.139-0.135c2.832,0,3.681,1.126,3.681,2.602
			c0,1.477-0.85,2.602-3.681,2.602c-0.712,0-1.431-0.021-2.139-0.063V10.495z M102.398,18.441c1.083,0.028,2.159,0.075,3.494,0.075
			c5.668,0,7.438-2.443,7.438-5.396c0-3.819-2.143-5.71-9.187-5.71h-7.091v18.057h5.345V18.441L102.398,18.441z"/>
		<path fill="#FFFFFF" d="M122.144,10.36h4.647c2.394,0,3.498,0.92,3.498,2.489c0,1.979-1.104,2.768-4.924,2.768h-3.222
			L122.144,10.36L122.144,10.36z M122.144,25.468v-6.914h4.24c0.748,0,1.378,0.375,1.768,1.108l3.09,5.805h6.259l-3.108-5.299
			c-1.037-1.774-2.832-2.51-4.375-2.949v-0.042c2.974-0.666,5.618-1.175,5.618-4.906c0-2.832-2.117-4.861-6.538-4.861h-12.294
			v18.061h5.341V25.468L122.144,25.468z"/>
		<path fill="#FFFFFF" d="M150.291,25.787c6.279,0,10.839-2.474,10.839-9.342c-0.007-6.867-4.556-9.353-10.839-9.353
			c-6.301-0.004-10.854,2.485-10.854,9.353C139.437,23.312,143.99,25.787,150.291,25.787 M155.785,16.445
			c0,3.547-2.096,5.065-5.494,5.065c-3.42,0-5.519-1.525-5.519-5.065c0-3.547,2.096-5.062,5.519-5.062
			C153.685,11.383,155.785,12.898,155.785,16.445"/>
		<polygon fill="#FFFFFF" points="162.949,25.475 168.748,25.475 174.34,18.909 179.499,25.475 185.74,25.475 178.193,15.96 
			185.506,7.418 179.799,7.418 174.918,13.011 169.876,7.418 163.456,7.418 171.055,15.96 		"/>
		<rect x="188.374" y="20.959" fill="#FFFFFF" width="3.911" height="4.513"/>
	</g>
</g>
<g id="Layer_4">
</g>
</svg>
