<?xml version="1.0" encoding="utf-8"?>
<!-- Generator: Adobe Illustrator 16.0.0, SVG Export Plug-In . SVG Version: 6.00 Build 0)  -->
<!DOCTYPE svg PUBLIC "-//W3C//DTD SVG 1.1//EN" "http://www.w3.org/Graphics/SVG/1.1/DTD/svg11.dtd">
<svg version="1.1" id="Layer_1" xmlns="http://www.w3.org/2000/svg" xmlns:xlink="http://www.w3.org/1999/xlink" x="0px" y="0px"
	 width="240px" height="240px" viewBox="0 0 240 240" enable-background="new 0 0 240 240" xml:space="preserve">
<metadata><?xpacket begin="﻿" id="W5M0MpCehiHzreSzNTczkc9d"?>
<x:xmpmeta xmlns:x="adobe:ns:meta/" x:xmptk="Adobe XMP Core 5.3-c011 66.145661, 2012/02/06-14:56:27        ">
   <rdf:RDF xmlns:rdf="http://www.w3.org/1999/02/22-rdf-syntax-ns#">
      <rdf:Description rdf:about=""
            xmlns:dc="http://purl.org/dc/elements/1.1/">
         <dc:format>image/svg+xml</dc:format>
         <dc:title>
            <rdf:Alt>
               <rdf:li xml:lang="x-default">Print</rdf:li>
            </rdf:Alt>
         </dc:title>
      </rdf:Description>
      <rdf:Description rdf:about=""
            xmlns:xmp="http://ns.adobe.com/xap/1.0/"
            xmlns:xmpGImg="http://ns.adobe.com/xap/1.0/g/img/">
         <xmp:MetadataDate>2015-06-11T11:58:41+12:00</xmp:MetadataDate>
         <xmp:ModifyDate>2015-06-11T11:58:41+12:00</xmp:ModifyDate>
         <xmp:CreateDate>2015-06-11T11:58:41+12:00</xmp:CreateDate>
         <xmp:CreatorTool>Adobe Illustrator CS6 (Macintosh)</xmp:CreatorTool>
         <xmp:Thumbnails>
            <rdf:Alt>
               <rdf:li rdf:parseType="Resource">
                  <xmpGImg:width>256</xmpGImg:width>
                  <xmpGImg:height>252</xmpGImg:height>
                  <xmpGImg:format>JPEG</xmpGImg:format>
                  <xmpGImg:image>/9j/4AAQSkZJRgABAgEASABIAAD/7QAsUGhvdG9zaG9wIDMuMAA4QklNA+0AAAAAABAASAAAAAEA&#xA;AQBIAAAAAQAB/+4ADkFkb2JlAGTAAAAAAf/bAIQABgQEBAUEBgUFBgkGBQYJCwgGBggLDAoKCwoK&#xA;DBAMDAwMDAwQDA4PEA8ODBMTFBQTExwbGxscHx8fHx8fHx8fHwEHBwcNDA0YEBAYGhURFRofHx8f&#xA;Hx8fHx8fHx8fHx8fHx8fHx8fHx8fHx8fHx8fHx8fHx8fHx8fHx8fHx8fHx8f/8AAEQgA/AEAAwER&#xA;AAIRAQMRAf/EAaIAAAAHAQEBAQEAAAAAAAAAAAQFAwIGAQAHCAkKCwEAAgIDAQEBAQEAAAAAAAAA&#xA;AQACAwQFBgcICQoLEAACAQMDAgQCBgcDBAIGAnMBAgMRBAAFIRIxQVEGE2EicYEUMpGhBxWxQiPB&#xA;UtHhMxZi8CRygvElQzRTkqKyY3PCNUQnk6OzNhdUZHTD0uIIJoMJChgZhJRFRqS0VtNVKBry4/PE&#xA;1OT0ZXWFlaW1xdXl9WZ2hpamtsbW5vY3R1dnd4eXp7fH1+f3OEhYaHiImKi4yNjo+Ck5SVlpeYmZ&#xA;qbnJ2en5KjpKWmp6ipqqusra6voRAAICAQIDBQUEBQYECAMDbQEAAhEDBCESMUEFURNhIgZxgZEy&#xA;obHwFMHR4SNCFVJicvEzJDRDghaSUyWiY7LCB3PSNeJEgxdUkwgJChgZJjZFGidkdFU38qOzwygp&#xA;0+PzhJSktMTU5PRldYWVpbXF1eX1RlZmdoaWprbG1ub2R1dnd4eXp7fH1+f3OEhYaHiImKi4yNjo&#xA;+DlJWWl5iZmpucnZ6fkqOkpaanqKmqq6ytrq+v/aAAwDAQACEQMRAD8A9U4q7FXYq7FXYq7FXYq7&#xA;FXYq7FXYq7FXYq7FXYq7FXYq7FXYq7FXYq7FXYq7FXYq7FXYq7FXYq7FXYq7FXYq7FXYq7FXYq7F&#xA;XYq7FXYq7FXYq7FXYq7FXYq7FXYq7FXYq7FXYq7FXYq7FXYq7FXYq7FXYq7FXYq7FXYq7FXYq7FX&#xA;Yq7FXYq7FXYq7FXYq7FXYq7FXYq7FXYq7FXYq7FXYq7FXYq7FXYq7FXYq7FXYq7FXYq7FXYq7FXY&#xA;q7FXYq7FXYq7FXYq7FXYq7FXYq7FXYq7FXYq7FXYq7FXYq7FXYq7FXYq7FXYq7FXYq7FXYq7FXYq&#xA;7FXYq7FXYq7FXYq7FXYq7FXYq7FXYq7FXYq7FXYq7FXYq7FXYq7FXYq7FXYq7FXYq7FXYq7FXYq7&#xA;FXYq7FXYq7FXYq7FXYq7FXYq7FXYq7FXYq7FXYq7FXYq7FXYq7FXYq7FXYq7FXYq7FXYq7FXYq7F&#xA;XYq7FXYq7FXYq7FXYq7FXYq7FXYq7FXYq7FXYq7FXYq7FXYq7FXYq7FXYq7FXYq7FXYq7FXYq7FX&#xA;Yq7FXYq7FXYq7FXYq7FXYq7FXYq7FXYq7FXYq7FXYq7FXYq7FXYq7FXYq7FXYq7FXYq7FXYq7FXY&#xA;q7FXYq7FXYq7FXYq7FXYq7FXYq7FXYq7FXYq7FXYq7FXYq7FXYq7FXYq7FXYq7FXYq7FXYq7FXYq&#xA;7FXYq7FXYq7FXYq7FXYq7FXYq7FXYq7FXYq7FXYq7FXYq7FXYq7FXYq7FXYq7FXYq7FXYq7FXYq7&#xA;FXYq7FXYq7FXYq7FXYq7FXYq7FXYq7FXYq7FXYq7FXYq7FXYq7FXYq7FXYq7FXYq7FXYq7FXYq7F&#xA;XYq7FXYq7FXYq7FXYq7FXYq7FXYq7FXYq7FXYq7FXYq7FXYq7FXYq7FXYq7FXYq7FXYq7FXYq7FX&#xA;Yq7FXYq7FXYq7FXYq7FXYq7FXYq7FXYq7FXYq7FXYq7FXYq7FXYq7FXYq7FXYq7FXYq7FXYq7FXY&#xA;q7FXYq7FXYq7FXYq7FXYq7FXYq7FXYq7FXYq7FXYq7FXYq7FXYq7FXYq7FXYq7FXYq7FXYq7FXYq&#xA;7FXYq7FXYq7FXYq7FXYq7FXYq7FXYq7FXYq7FXYq7FXYq7FXYq7FXYq7FXYq7FXYq7FXYq7FXYq7&#xA;FXYq7FXYq7FXYq7FXYq7FXYq7FXYq7FXYq7FXYq7FXYq7FXYq7FXYq7FXYq7FXYq7FXYq7FXYq7F&#xA;XYq7FXYq7FXYq7FXYq7FXYq7FXYq7FXYq7FXYq7FXYq7FXYq7FXYq7FXYq7FXYq7FXYq7FXYq7FX&#xA;Yq7FXYq7FXYq7FXYq7FXYq7FXYq7FXYq7FXYq7FXYq7FXYq7FXYq7FXYq7FXYq7FXYq7FXYq7FXY&#xA;q7FXYq7FXYq7FXYq7FXYq7FXYq7FXYq7FXYq7FXYq7FXYq7FXYq7FXYq7FXYq7FXYq7FXYq7FXYq&#xA;7FXYq7FXYq7FXYq7FXYq7FXYq7FXYq7FXYq7FXYq7FXYq7FXYq7FXYq7FXYq7FXYq7FXYq7FXYq7&#xA;FXYq7FXYq7FXYq7FXYq7FXYq7FXYq7FXYq7FXYq7FXYq7FXYq7FXYq7FXYq7FXYq7FXYq7FXYq7F&#xA;XYq7FXYq7FXYq7FXYq7FXYq7FXYq7FXYq7FXYq7FXYq7FXYq7FXYq7FXYq7FXYq7FXYq7FXYq7FX&#xA;Yq7FXYq7FXYq7FXYq7FXYq7FXYq7FXYq7FXYq7FXYq7FXYq7FXYq7FXYq7FXYq7FXYq7FXYq7FXY&#xA;q7FXYq7FXYq7FXYq7FXYq7FXYq7FXYq7FXYq7FXYq7FXYq7FXYq7FXYq7FXYq7FXYq7FXYq7FXYq&#xA;7FXYq7FXYq7FXYq7FXYq7FXYq7FXYq7FXYq7FXYq7FXYq7FXYq7FXYq7FXYq7FXYq7FXYq7FXYq7&#xA;FXYq7FXYq7FXYq7FXYq7FXYq7FXYq7FXYq7FXYq7FXYq7FXYq7FXYq7FXYq7FXYq7FXYq7FXYq7F&#xA;XYq7FXYq7FXYq7FXYq7FXYq7FXYq7FXYq7FXYq7FXYq7FXYq7FXYq7FXYq7FXYq7FXYq7FXYq7FX&#xA;Yq7FXYq7FXYq7FXYq7FXYq7FXYq7FXYq7FXYq7FXYq7FXYq7FXYq7FXYq7FXYq7FXYq7FXYq7FXY&#xA;q7FXYq7FXYq7FXYq7FXYq7FXYq7FXYq7FXYq7FXYq7FXYq7FXYq7FXYq7FXYq7FXYq7FXYq7FXYq&#xA;7FXYq7FXYq7FXYq7FXYq7FXYq7FXYq7FXYq7FXYq7FXYq7FXYq7FXYq7FXYq7FXYq7FXYq7FXYq7&#xA;FXYq7FXYq7FXYq7FXYq7FXYq7FXYq7FXYq7FXYq7FXYq7FXYq7FXYq7FXYq7FXYq7FXYq7FXYq7F&#xA;XYq7FXYq7FXYq7FXYq7FXYq7FXYq7FXYq7FXYq7FXYq7FXYq7FXYq7FXYq7FXYq7FXYq7FXYq7FX&#xA;Yq7FXYq7FXYq7FXYq7FXYq7FXYq7FXYq7FXYq7FXYq7FXYq7FXYq7FXYq7FXYq7FXYq7FXYq7FXY&#xA;q7FXYq7FXYq7FXYq7FXYq7FXYq7FXYq7FX//2Q==</xmpGImg:image>
               </rdf:li>
            </rdf:Alt>
         </xmp:Thumbnails>
      </rdf:Description>
      <rdf:Description rdf:about=""
            xmlns:xmpMM="http://ns.adobe.com/xap/1.0/mm/"
            xmlns:stRef="http://ns.adobe.com/xap/1.0/sType/ResourceRef#"
            xmlns:stEvt="http://ns.adobe.com/xap/1.0/sType/ResourceEvent#">
         <xmpMM:InstanceID>xmp.iid:01801174072068118083D4B3C42C17FD</xmpMM:InstanceID>
         <xmpMM:DocumentID>xmp.did:01801174072068118083D4B3C42C17FD</xmpMM:DocumentID>
         <xmpMM:OriginalDocumentID>uuid:5D20892493BFDB11914A8590D31508C8</xmpMM:OriginalDocumentID>
         <xmpMM:RenditionClass>proof:pdf</xmpMM:RenditionClass>
         <xmpMM:DerivedFrom rdf:parseType="Resource">
            <stRef:instanceID>uuid:ba5dc92b-6d0a-484a-ab90-b9370a4a0965</stRef:instanceID>
            <stRef:documentID>xmp.did:0980117407206811822A897E387FE54C</stRef:documentID>
            <stRef:originalDocumentID>uuid:5D20892493BFDB11914A8590D31508C8</stRef:originalDocumentID>
            <stRef:renditionClass>proof:pdf</stRef:renditionClass>
         </xmpMM:DerivedFrom>
         <xmpMM:History>
            <rdf:Seq>
               <rdf:li rdf:parseType="Resource">
                  <stEvt:action>saved</stEvt:action>
                  <stEvt:instanceID>xmp.iid:01801174072068118083D4B3C42C17FD</stEvt:instanceID>
                  <stEvt:when>2015-06-11T11:58:41+12:00</stEvt:when>
                  <stEvt:softwareAgent>Adobe Illustrator CS6 (Macintosh)</stEvt:softwareAgent>
                  <stEvt:changed>/</stEvt:changed>
               </rdf:li>
            </rdf:Seq>
         </xmpMM:History>
      </rdf:Description>
      <rdf:Description rdf:about=""
            xmlns:illustrator="http://ns.adobe.com/illustrator/1.0/">
         <illustrator:StartupProfile>Print</illustrator:StartupProfile>
      </rdf:Description>
      <rdf:Description rdf:about=""
            xmlns:xmpTPg="http://ns.adobe.com/xap/1.0/t/pg/"
            xmlns:stDim="http://ns.adobe.com/xap/1.0/sType/Dimensions#"
            xmlns:xmpG="http://ns.adobe.com/xap/1.0/g/">
         <xmpTPg:HasVisibleOverprint>False</xmpTPg:HasVisibleOverprint>
         <xmpTPg:HasVisibleTransparency>False</xmpTPg:HasVisibleTransparency>
         <xmpTPg:NPages>1</xmpTPg:NPages>
         <xmpTPg:MaxPageSize rdf:parseType="Resource">
            <stDim:w>240.000000</stDim:w>
            <stDim:h>240.000488</stDim:h>
            <stDim:unit>Pixels</stDim:unit>
         </xmpTPg:MaxPageSize>
         <xmpTPg:SwatchGroups>
            <rdf:Seq>
               <rdf:li rdf:parseType="Resource">
                  <xmpG:groupName>Default Swatch Group</xmpG:groupName>
                  <xmpG:groupType>0</xmpG:groupType>
                  <xmpG:Colorants>
                     <rdf:Seq>
                        <rdf:li rdf:parseType="Resource">
                           <xmpG:swatchName>White</xmpG:swatchName>
                           <xmpG:mode>RGB</xmpG:mode>
                           <xmpG:type>PROCESS</xmpG:type>
                           <xmpG:red>255</xmpG:red>
                           <xmpG:green>255</xmpG:green>
                           <xmpG:blue>255</xmpG:blue>
                        </rdf:li>
                        <rdf:li rdf:parseType="Resource">
                           <xmpG:swatchName>Black</xmpG:swatchName>
                           <xmpG:mode>RGB</xmpG:mode>
                           <xmpG:type>PROCESS</xmpG:type>
                           <xmpG:red>35</xmpG:red>
                           <xmpG:green>31</xmpG:green>
                           <xmpG:blue>32</xmpG:blue>
                        </rdf:li>
                        <rdf:li rdf:parseType="Resource">
                           <xmpG:swatchName>CMYK Red</xmpG:swatchName>
                           <xmpG:mode>RGB</xmpG:mode>
                           <xmpG:type>PROCESS</xmpG:type>
                           <xmpG:red>237</xmpG:red>
                           <xmpG:green>28</xmpG:green>
                           <xmpG:blue>36</xmpG:blue>
                        </rdf:li>
                        <rdf:li rdf:parseType="Resource">
                           <xmpG:swatchName>CMYK Yellow</xmpG:swatchName>
                           <xmpG:mode>RGB</xmpG:mode>
                           <xmpG:type>PROCESS</xmpG:type>
                           <xmpG:red>255</xmpG:red>
                           <xmpG:green>242</xmpG:green>
                           <xmpG:blue>0</xmpG:blue>
                        </rdf:li>
                        <rdf:li rdf:parseType="Resource">
                           <xmpG:swatchName>CMYK Green</xmpG:swatchName>
                           <xmpG:mode>RGB</xmpG:mode>
                           <xmpG:type>PROCESS</xmpG:type>
                           <xmpG:red>0</xmpG:red>
                           <xmpG:green>166</xmpG:green>
                           <xmpG:blue>81</xmpG:blue>
                        </rdf:li>
                        <rdf:li rdf:parseType="Resource">
                           <xmpG:swatchName>CMYK Cyan</xmpG:swatchName>
                           <xmpG:mode>RGB</xmpG:mode>
                           <xmpG:type>PROCESS</xmpG:type>
                           <xmpG:red>0</xmpG:red>
                           <xmpG:green>174</xmpG:green>
                           <xmpG:blue>239</xmpG:blue>
                        </rdf:li>
                        <rdf:li rdf:parseType="Resource">
                           <xmpG:swatchName>CMYK Blue</xmpG:swatchName>
                           <xmpG:mode>RGB</xmpG:mode>
                           <xmpG:type>PROCESS</xmpG:type>
                           <xmpG:red>46</xmpG:red>
                           <xmpG:green>49</xmpG:green>
                           <xmpG:blue>146</xmpG:blue>
                        </rdf:li>
                        <rdf:li rdf:parseType="Resource">
                           <xmpG:swatchName>CMYK Magenta</xmpG:swatchName>
                           <xmpG:mode>RGB</xmpG:mode>
                           <xmpG:type>PROCESS</xmpG:type>
                           <xmpG:red>236</xmpG:red>
                           <xmpG:green>0</xmpG:green>
                           <xmpG:blue>140</xmpG:blue>
                        </rdf:li>
                        <rdf:li rdf:parseType="Resource">
                           <xmpG:swatchName>C=15 M=100 Y=90 K=10</xmpG:swatchName>
                           <xmpG:mode>RGB</xmpG:mode>
                           <xmpG:type>PROCESS</xmpG:type>
                           <xmpG:red>190</xmpG:red>
                           <xmpG:green>30</xmpG:green>
                           <xmpG:blue>45</xmpG:blue>
                        </rdf:li>
                        <rdf:li rdf:parseType="Resource">
                           <xmpG:swatchName>C=0 M=90 Y=85 K=0</xmpG:swatchName>
                           <xmpG:mode>RGB</xmpG:mode>
                           <xmpG:type>PROCESS</xmpG:type>
                           <xmpG:red>239</xmpG:red>
                           <xmpG:green>65</xmpG:green>
                           <xmpG:blue>54</xmpG:blue>
                        </rdf:li>
                        <rdf:li rdf:parseType="Resource">
                           <xmpG:swatchName>C=0 M=80 Y=95 K=0</xmpG:swatchName>
                           <xmpG:mode>RGB</xmpG:mode>
                           <xmpG:type>PROCESS</xmpG:type>
                           <xmpG:red>241</xmpG:red>
                           <xmpG:green>90</xmpG:green>
                           <xmpG:blue>41</xmpG:blue>
                        </rdf:li>
                        <rdf:li rdf:parseType="Resource">
                           <xmpG:swatchName>C=0 M=50 Y=100 K=0</xmpG:swatchName>
                           <xmpG:mode>RGB</xmpG:mode>
                           <xmpG:type>PROCESS</xmpG:type>
                           <xmpG:red>247</xmpG:red>
                           <xmpG:green>148</xmpG:green>
                           <xmpG:blue>30</xmpG:blue>
                        </rdf:li>
                        <rdf:li rdf:parseType="Resource">
                           <xmpG:swatchName>C=0 M=35 Y=85 K=0</xmpG:swatchName>
                           <xmpG:mode>RGB</xmpG:mode>
                           <xmpG:type>PROCESS</xmpG:type>
                           <xmpG:red>251</xmpG:red>
                           <xmpG:green>176</xmpG:green>
                           <xmpG:blue>64</xmpG:blue>
                        </rdf:li>
                        <rdf:li rdf:parseType="Resource">
                           <xmpG:swatchName>C=5 M=0 Y=90 K=0</xmpG:swatchName>
                           <xmpG:mode>RGB</xmpG:mode>
                           <xmpG:type>PROCESS</xmpG:type>
                           <xmpG:red>249</xmpG:red>
                           <xmpG:green>237</xmpG:green>
                           <xmpG:blue>50</xmpG:blue>
                        </rdf:li>
                        <rdf:li rdf:parseType="Resource">
                           <xmpG:swatchName>C=20 M=0 Y=100 K=0</xmpG:swatchName>
                           <xmpG:mode>RGB</xmpG:mode>
                           <xmpG:type>PROCESS</xmpG:type>
                           <xmpG:red>215</xmpG:red>
                           <xmpG:green>223</xmpG:green>
                           <xmpG:blue>35</xmpG:blue>
                        </rdf:li>
                        <rdf:li rdf:parseType="Resource">
                           <xmpG:swatchName>C=50 M=0 Y=100 K=0</xmpG:swatchName>
                           <xmpG:mode>RGB</xmpG:mode>
                           <xmpG:type>PROCESS</xmpG:type>
                           <xmpG:red>141</xmpG:red>
                           <xmpG:green>198</xmpG:green>
                           <xmpG:blue>63</xmpG:blue>
                        </rdf:li>
                        <rdf:li rdf:parseType="Resource">
                           <xmpG:swatchName>C=75 M=0 Y=100 K=0</xmpG:swatchName>
                           <xmpG:mode>RGB</xmpG:mode>
                           <xmpG:type>PROCESS</xmpG:type>
                           <xmpG:red>57</xmpG:red>
                           <xmpG:green>181</xmpG:green>
                           <xmpG:blue>74</xmpG:blue>
                        </rdf:li>
                        <rdf:li rdf:parseType="Resource">
                           <xmpG:swatchName>C=85 M=10 Y=100 K=10</xmpG:swatchName>
                           <xmpG:mode>RGB</xmpG:mode>
                           <xmpG:type>PROCESS</xmpG:type>
                           <xmpG:red>0</xmpG:red>
                           <xmpG:green>148</xmpG:green>
                           <xmpG:blue>68</xmpG:blue>
                        </rdf:li>
                        <rdf:li rdf:parseType="Resource">
                           <xmpG:swatchName>C=90 M=30 Y=95 K=30</xmpG:swatchName>
                           <xmpG:mode>RGB</xmpG:mode>
                           <xmpG:type>PROCESS</xmpG:type>
                           <xmpG:red>0</xmpG:red>
                           <xmpG:green>104</xmpG:green>
                           <xmpG:blue>56</xmpG:blue>
                        </rdf:li>
                        <rdf:li rdf:parseType="Resource">
                           <xmpG:swatchName>C=75 M=0 Y=75 K=0</xmpG:swatchName>
                           <xmpG:mode>RGB</xmpG:mode>
                           <xmpG:type>PROCESS</xmpG:type>
                           <xmpG:red>43</xmpG:red>
                           <xmpG:green>182</xmpG:green>
                           <xmpG:blue>115</xmpG:blue>
                        </rdf:li>
                        <rdf:li rdf:parseType="Resource">
                           <xmpG:swatchName>C=80 M=10 Y=45 K=0</xmpG:swatchName>
                           <xmpG:mode>RGB</xmpG:mode>
                           <xmpG:type>PROCESS</xmpG:type>
                           <xmpG:red>0</xmpG:red>
                           <xmpG:green>167</xmpG:green>
                           <xmpG:blue>157</xmpG:blue>
                        </rdf:li>
                        <rdf:li rdf:parseType="Resource">
                           <xmpG:swatchName>C=70 M=15 Y=0 K=0</xmpG:swatchName>
                           <xmpG:mode>RGB</xmpG:mode>
                           <xmpG:type>PROCESS</xmpG:type>
                           <xmpG:red>39</xmpG:red>
                           <xmpG:green>170</xmpG:green>
                           <xmpG:blue>225</xmpG:blue>
                        </rdf:li>
                        <rdf:li rdf:parseType="Resource">
                           <xmpG:swatchName>C=85 M=50 Y=0 K=0</xmpG:swatchName>
                           <xmpG:mode>RGB</xmpG:mode>
                           <xmpG:type>PROCESS</xmpG:type>
                           <xmpG:red>28</xmpG:red>
                           <xmpG:green>117</xmpG:green>
                           <xmpG:blue>188</xmpG:blue>
                        </rdf:li>
                        <rdf:li rdf:parseType="Resource">
                           <xmpG:swatchName>C=100 M=95 Y=5 K=0</xmpG:swatchName>
                           <xmpG:mode>RGB</xmpG:mode>
                           <xmpG:type>PROCESS</xmpG:type>
                           <xmpG:red>43</xmpG:red>
                           <xmpG:green>57</xmpG:green>
                           <xmpG:blue>144</xmpG:blue>
                        </rdf:li>
                        <rdf:li rdf:parseType="Resource">
                           <xmpG:swatchName>C=100 M=100 Y=25 K=25</xmpG:swatchName>
                           <xmpG:mode>RGB</xmpG:mode>
                           <xmpG:type>PROCESS</xmpG:type>
                           <xmpG:red>38</xmpG:red>
                           <xmpG:green>34</xmpG:green>
                           <xmpG:blue>98</xmpG:blue>
                        </rdf:li>
                        <rdf:li rdf:parseType="Resource">
                           <xmpG:swatchName>C=75 M=100 Y=0 K=0</xmpG:swatchName>
                           <xmpG:mode>RGB</xmpG:mode>
                           <xmpG:type>PROCESS</xmpG:type>
                           <xmpG:red>102</xmpG:red>
                           <xmpG:green>45</xmpG:green>
                           <xmpG:blue>145</xmpG:blue>
                        </rdf:li>
                        <rdf:li rdf:parseType="Resource">
                           <xmpG:swatchName>C=50 M=100 Y=0 K=0</xmpG:swatchName>
                           <xmpG:mode>RGB</xmpG:mode>
                           <xmpG:type>PROCESS</xmpG:type>
                           <xmpG:red>146</xmpG:red>
                           <xmpG:green>39</xmpG:green>
                           <xmpG:blue>143</xmpG:blue>
                        </rdf:li>
                        <rdf:li rdf:parseType="Resource">
                           <xmpG:swatchName>C=35 M=100 Y=35 K=10</xmpG:swatchName>
                           <xmpG:mode>RGB</xmpG:mode>
                           <xmpG:type>PROCESS</xmpG:type>
                           <xmpG:red>158</xmpG:red>
                           <xmpG:green>31</xmpG:green>
                           <xmpG:blue>99</xmpG:blue>
                        </rdf:li>
                        <rdf:li rdf:parseType="Resource">
                           <xmpG:swatchName>C=10 M=100 Y=50 K=0</xmpG:swatchName>
                           <xmpG:mode>RGB</xmpG:mode>
                           <xmpG:type>PROCESS</xmpG:type>
                           <xmpG:red>218</xmpG:red>
                           <xmpG:green>28</xmpG:green>
                           <xmpG:blue>92</xmpG:blue>
                        </rdf:li>
                        <rdf:li rdf:parseType="Resource">
                           <xmpG:swatchName>C=0 M=95 Y=20 K=0</xmpG:swatchName>
                           <xmpG:mode>RGB</xmpG:mode>
                           <xmpG:type>PROCESS</xmpG:type>
                           <xmpG:red>238</xmpG:red>
                           <xmpG:green>42</xmpG:green>
                           <xmpG:blue>123</xmpG:blue>
                        </rdf:li>
                        <rdf:li rdf:parseType="Resource">
                           <xmpG:swatchName>C=25 M=25 Y=40 K=0</xmpG:swatchName>
                           <xmpG:mode>RGB</xmpG:mode>
                           <xmpG:type>PROCESS</xmpG:type>
                           <xmpG:red>194</xmpG:red>
                           <xmpG:green>181</xmpG:green>
                           <xmpG:blue>155</xmpG:blue>
                        </rdf:li>
                        <rdf:li rdf:parseType="Resource">
                           <xmpG:swatchName>C=40 M=45 Y=50 K=5</xmpG:swatchName>
                           <xmpG:mode>RGB</xmpG:mode>
                           <xmpG:type>PROCESS</xmpG:type>
                           <xmpG:red>155</xmpG:red>
                           <xmpG:green>133</xmpG:green>
                           <xmpG:blue>121</xmpG:blue>
                        </rdf:li>
                        <rdf:li rdf:parseType="Resource">
                           <xmpG:swatchName>C=50 M=50 Y=60 K=25</xmpG:swatchName>
                           <xmpG:mode>RGB</xmpG:mode>
                           <xmpG:type>PROCESS</xmpG:type>
                           <xmpG:red>114</xmpG:red>
                           <xmpG:green>102</xmpG:green>
                           <xmpG:blue>88</xmpG:blue>
                        </rdf:li>
                        <rdf:li rdf:parseType="Resource">
                           <xmpG:swatchName>C=55 M=60 Y=65 K=40</xmpG:swatchName>
                           <xmpG:mode>RGB</xmpG:mode>
                           <xmpG:type>PROCESS</xmpG:type>
                           <xmpG:red>89</xmpG:red>
                           <xmpG:green>74</xmpG:green>
                           <xmpG:blue>66</xmpG:blue>
                        </rdf:li>
                        <rdf:li rdf:parseType="Resource">
                           <xmpG:swatchName>C=25 M=40 Y=65 K=0</xmpG:swatchName>
                           <xmpG:mode>RGB</xmpG:mode>
                           <xmpG:type>PROCESS</xmpG:type>
                           <xmpG:red>196</xmpG:red>
                           <xmpG:green>154</xmpG:green>
                           <xmpG:blue>108</xmpG:blue>
                        </rdf:li>
                        <rdf:li rdf:parseType="Resource">
                           <xmpG:swatchName>C=30 M=50 Y=75 K=10</xmpG:swatchName>
                           <xmpG:mode>RGB</xmpG:mode>
                           <xmpG:type>PROCESS</xmpG:type>
                           <xmpG:red>169</xmpG:red>
                           <xmpG:green>124</xmpG:green>
                           <xmpG:blue>80</xmpG:blue>
                        </rdf:li>
                        <rdf:li rdf:parseType="Resource">
                           <xmpG:swatchName>C=35 M=60 Y=80 K=25</xmpG:swatchName>
                           <xmpG:mode>RGB</xmpG:mode>
                           <xmpG:type>PROCESS</xmpG:type>
                           <xmpG:red>139</xmpG:red>
                           <xmpG:green>94</xmpG:green>
                           <xmpG:blue>60</xmpG:blue>
                        </rdf:li>
                        <rdf:li rdf:parseType="Resource">
                           <xmpG:swatchName>C=40 M=65 Y=90 K=35</xmpG:swatchName>
                           <xmpG:mode>RGB</xmpG:mode>
                           <xmpG:type>PROCESS</xmpG:type>
                           <xmpG:red>117</xmpG:red>
                           <xmpG:green>76</xmpG:green>
                           <xmpG:blue>41</xmpG:blue>
                        </rdf:li>
                        <rdf:li rdf:parseType="Resource">
                           <xmpG:swatchName>C=40 M=70 Y=100 K=50</xmpG:swatchName>
                           <xmpG:mode>RGB</xmpG:mode>
                           <xmpG:type>PROCESS</xmpG:type>
                           <xmpG:red>96</xmpG:red>
                           <xmpG:green>57</xmpG:green>
                           <xmpG:blue>19</xmpG:blue>
                        </rdf:li>
                        <rdf:li rdf:parseType="Resource">
                           <xmpG:swatchName>C=50 M=70 Y=80 K=70</xmpG:swatchName>
                           <xmpG:mode>RGB</xmpG:mode>
                           <xmpG:type>PROCESS</xmpG:type>
                           <xmpG:red>60</xmpG:red>
                           <xmpG:green>36</xmpG:green>
                           <xmpG:blue>21</xmpG:blue>
                        </rdf:li>
                     </rdf:Seq>
                  </xmpG:Colorants>
               </rdf:li>
               <rdf:li rdf:parseType="Resource">
                  <xmpG:groupName>Grays</xmpG:groupName>
                  <xmpG:groupType>1</xmpG:groupType>
                  <xmpG:Colorants>
                     <rdf:Seq>
                        <rdf:li rdf:parseType="Resource">
                           <xmpG:swatchName>C=0 M=0 Y=0 K=100</xmpG:swatchName>
                           <xmpG:mode>RGB</xmpG:mode>
                           <xmpG:type>PROCESS</xmpG:type>
                           <xmpG:red>35</xmpG:red>
                           <xmpG:green>31</xmpG:green>
                           <xmpG:blue>32</xmpG:blue>
                        </rdf:li>
                        <rdf:li rdf:parseType="Resource">
                           <xmpG:swatchName>C=0 M=0 Y=0 K=90</xmpG:swatchName>
                           <xmpG:mode>RGB</xmpG:mode>
                           <xmpG:type>PROCESS</xmpG:type>
                           <xmpG:red>65</xmpG:red>
                           <xmpG:green>64</xmpG:green>
                           <xmpG:blue>66</xmpG:blue>
                        </rdf:li>
                        <rdf:li rdf:parseType="Resource">
                           <xmpG:swatchName>C=0 M=0 Y=0 K=80</xmpG:swatchName>
                           <xmpG:mode>RGB</xmpG:mode>
                           <xmpG:type>PROCESS</xmpG:type>
                           <xmpG:red>88</xmpG:red>
                           <xmpG:green>89</xmpG:green>
                           <xmpG:blue>91</xmpG:blue>
                        </rdf:li>
                        <rdf:li rdf:parseType="Resource">
                           <xmpG:swatchName>C=0 M=0 Y=0 K=70</xmpG:swatchName>
                           <xmpG:mode>RGB</xmpG:mode>
                           <xmpG:type>PROCESS</xmpG:type>
                           <xmpG:red>109</xmpG:red>
                           <xmpG:green>110</xmpG:green>
                           <xmpG:blue>113</xmpG:blue>
                        </rdf:li>
                        <rdf:li rdf:parseType="Resource">
                           <xmpG:swatchName>C=0 M=0 Y=0 K=60</xmpG:swatchName>
                           <xmpG:mode>RGB</xmpG:mode>
                           <xmpG:type>PROCESS</xmpG:type>
                           <xmpG:red>128</xmpG:red>
                           <xmpG:green>130</xmpG:green>
                           <xmpG:blue>133</xmpG:blue>
                        </rdf:li>
                        <rdf:li rdf:parseType="Resource">
                           <xmpG:swatchName>C=0 M=0 Y=0 K=50</xmpG:swatchName>
                           <xmpG:mode>RGB</xmpG:mode>
                           <xmpG:type>PROCESS</xmpG:type>
                           <xmpG:red>147</xmpG:red>
                           <xmpG:green>149</xmpG:green>
                           <xmpG:blue>152</xmpG:blue>
                        </rdf:li>
                        <rdf:li rdf:parseType="Resource">
                           <xmpG:swatchName>C=0 M=0 Y=0 K=40</xmpG:swatchName>
                           <xmpG:mode>RGB</xmpG:mode>
                           <xmpG:type>PROCESS</xmpG:type>
                           <xmpG:red>167</xmpG:red>
                           <xmpG:green>169</xmpG:green>
                           <xmpG:blue>172</xmpG:blue>
                        </rdf:li>
                        <rdf:li rdf:parseType="Resource">
                           <xmpG:swatchName>C=0 M=0 Y=0 K=30</xmpG:swatchName>
                           <xmpG:mode>RGB</xmpG:mode>
                           <xmpG:type>PROCESS</xmpG:type>
                           <xmpG:red>188</xmpG:red>
                           <xmpG:green>190</xmpG:green>
                           <xmpG:blue>192</xmpG:blue>
                        </rdf:li>
                        <rdf:li rdf:parseType="Resource">
                           <xmpG:swatchName>C=0 M=0 Y=0 K=20</xmpG:swatchName>
                           <xmpG:mode>RGB</xmpG:mode>
                           <xmpG:type>PROCESS</xmpG:type>
                           <xmpG:red>209</xmpG:red>
                           <xmpG:green>211</xmpG:green>
                           <xmpG:blue>212</xmpG:blue>
                        </rdf:li>
                        <rdf:li rdf:parseType="Resource">
                           <xmpG:swatchName>C=0 M=0 Y=0 K=10</xmpG:swatchName>
                           <xmpG:mode>RGB</xmpG:mode>
                           <xmpG:type>PROCESS</xmpG:type>
                           <xmpG:red>230</xmpG:red>
                           <xmpG:green>231</xmpG:green>
                           <xmpG:blue>232</xmpG:blue>
                        </rdf:li>
                        <rdf:li rdf:parseType="Resource">
                           <xmpG:swatchName>C=0 M=0 Y=0 K=5</xmpG:swatchName>
                           <xmpG:mode>RGB</xmpG:mode>
                           <xmpG:type>PROCESS</xmpG:type>
                           <xmpG:red>241</xmpG:red>
                           <xmpG:green>242</xmpG:green>
                           <xmpG:blue>242</xmpG:blue>
                        </rdf:li>
                     </rdf:Seq>
                  </xmpG:Colorants>
               </rdf:li>
               <rdf:li rdf:parseType="Resource">
                  <xmpG:groupName>Brights</xmpG:groupName>
                  <xmpG:groupType>1</xmpG:groupType>
                  <xmpG:Colorants>
                     <rdf:Seq>
                        <rdf:li rdf:parseType="Resource">
                           <xmpG:swatchName>C=0 M=100 Y=100 K=0</xmpG:swatchName>
                           <xmpG:mode>RGB</xmpG:mode>
                           <xmpG:type>PROCESS</xmpG:type>
                           <xmpG:red>237</xmpG:red>
                           <xmpG:green>28</xmpG:green>
                           <xmpG:blue>36</xmpG:blue>
                        </rdf:li>
                        <rdf:li rdf:parseType="Resource">
                           <xmpG:swatchName>C=0 M=75 Y=100 K=0</xmpG:swatchName>
                           <xmpG:mode>RGB</xmpG:mode>
                           <xmpG:type>PROCESS</xmpG:type>
                           <xmpG:red>242</xmpG:red>
                           <xmpG:green>101</xmpG:green>
                           <xmpG:blue>34</xmpG:blue>
                        </rdf:li>
                        <rdf:li rdf:parseType="Resource">
                           <xmpG:swatchName>C=0 M=10 Y=95 K=0</xmpG:swatchName>
                           <xmpG:mode>RGB</xmpG:mode>
                           <xmpG:type>PROCESS</xmpG:type>
                           <xmpG:red>255</xmpG:red>
                           <xmpG:green>222</xmpG:green>
                           <xmpG:blue>23</xmpG:blue>
                        </rdf:li>
                        <rdf:li rdf:parseType="Resource">
                           <xmpG:swatchName>C=85 M=10 Y=100 K=0</xmpG:swatchName>
                           <xmpG:mode>RGB</xmpG:mode>
                           <xmpG:type>PROCESS</xmpG:type>
                           <xmpG:red>0</xmpG:red>
                           <xmpG:green>161</xmpG:green>
                           <xmpG:blue>75</xmpG:blue>
                        </rdf:li>
                        <rdf:li rdf:parseType="Resource">
                           <xmpG:swatchName>C=100 M=90 Y=0 K=0</xmpG:swatchName>
                           <xmpG:mode>RGB</xmpG:mode>
                           <xmpG:type>PROCESS</xmpG:type>
                           <xmpG:red>33</xmpG:red>
                           <xmpG:green>64</xmpG:green>
                           <xmpG:blue>154</xmpG:blue>
                        </rdf:li>
                        <rdf:li rdf:parseType="Resource">
                           <xmpG:swatchName>C=60 M=90 Y=0 K=0</xmpG:swatchName>
                           <xmpG:mode>RGB</xmpG:mode>
                           <xmpG:type>PROCESS</xmpG:type>
                           <xmpG:red>127</xmpG:red>
                           <xmpG:green>63</xmpG:green>
                           <xmpG:blue>152</xmpG:blue>
                        </rdf:li>
                     </rdf:Seq>
                  </xmpG:Colorants>
               </rdf:li>
            </rdf:Seq>
         </xmpTPg:SwatchGroups>
      </rdf:Description>
      <rdf:Description rdf:about=""
            xmlns:pdf="http://ns.adobe.com/pdf/1.3/">
         <pdf:Producer>Adobe PDF library 10.01</pdf:Producer>
      </rdf:Description>
   </rdf:RDF>
</x:xmpmeta>
                                                                                                    
                                                                                                    
                                                                                                    
                                                                                                    
                                                                                                    
                                                                                                    
                                                                                                    
                                                                                                    
                                                                                                    
                                                                                                    
                                                                                                    
                                                                                                    
                                                                                                    
                                                                                                    
                                                                                                    
                                                                                                    
                                                                                                    
                                                                                                    
                                                                                                    
                                                                                                    
                           
<?xpacket end="w"?>
	</metadata>
<g id="Layer_1_1_">
	<g>
		<path fill="#FFFFFF" d="M73.764,216.194c0-9.812-6.118-17.168-15.225-18.4c-2.768-0.352-6.287-0.589-10.639-0.589H35.5v39.218
			h9.465c6.526,0,8.697-0.123,12.401-0.766c3.06-0.535,5.939-1.709,8.408-3.47C70.887,228.595,73.764,222.838,73.764,216.194
			 M63.006,216.139c0.003,5.521-3.175,10.049-8.225,11.574c-2.586,0.83-3.53,0.943-7.526,0.943h-1.532v-23.871h2.467
			c4.292,0,5.178,0.062,7.234,0.646c1.347,0.363,2.699,1.121,3.877,2.121C61.774,209.61,63.006,212.551,63.006,216.139"/>
		<path fill="#FFFFFF" d="M98.479,208.083c-0.995-0.463-1.407-0.525-2.699-0.525c-3.646,0-6.646,2.23-8.813,6.461l-0.004-5.938
			h-9.056v28.342h9.472l-0.008-12.352c2.35-4.988,5.351-8.228,7.762-8.228c0.415,0,0.709,0.062,1.709,0.234L98.479,208.083z"/>
		<path fill="#FFFFFF" d="M112.426,200.206c0-2.819-2.357-5.11-5.17-5.11c-2.819,0-5.115,2.288-5.115,5.11
			c0,2.883,2.296,5.182,5.118,5.182C110.079,205.386,112.426,203.088,112.426,200.206 M111.963,236.422l-0.004-28.34h-9.346v28.34
			H111.963z"/>
		<path fill="#FFFFFF" d="M146.352,236.428V218.84c0-5.225-0.535-7.578-2.063-9.275c-1.298-1.482-3.465-2.361-5.815-2.361
			c-3.591,0-7.581,1.945-10.641,5.231v-4.354h-9.001l0.004,28.342l9.344,0.004v-16.876c1.883-2.117,4.475-3.704,6.125-3.704
			c1.46,0,2.41,0.993,2.52,2.703c0.058,0.694,0.119,2.293,0.119,3.228v14.649L146.352,236.428L146.352,236.428z"/>
		<polygon fill="#FFFFFF" points="182.104,236.428 171.461,220.669 181.398,208.086 169.991,208.086 161.994,219.086 
			161.994,194.333 152.529,194.333 152.532,236.428 162.001,236.428 161.994,222.251 170.645,236.428 		"/>
		<path fill="#FFFFFF" d="M207.049,227.192c0-2.172-0.887-4.347-2.414-5.699c-1.174-1.065-2.588-1.879-4.12-2.472
			c-0.459-0.176-1.985-0.697-4.584-1.644c-1.227-0.413-1.881-1.003-1.881-1.709c0-1.166,1.713-1.879,4.886-1.879
			c1.579,0,3.46,0.235,5.699,0.643l1.294-6.105c-2.77-0.651-5.586-0.947-8.229-0.947c-7.992,0-13.346,3.708-13.346,9.229
			c0,2.118,0.941,4.239,2.585,5.59c1.823,1.588,3.237,2.233,8.35,3.994c1.175,0.412,1.764,0.88,1.764,1.59
			c0,1.412-2.06,2.116-5.941,2.116c-1.823,0-3.643-0.125-6.345-0.529l-1.468,6.583c3.001,0.708,6.165,1.056,9.047,1.056
			C201.461,237.007,207.049,233.303,207.049,227.192"/>
		<path fill="#FFFFFF" d="M226.146,206.18l-1.306-8.831h-2.695l-1.654,5.023l-1.834-5.023h-2.747l-1.142,8.831h2.488l0.428-4.37
			l1.58,4.37h2.253l1.487-4.37l0.529,4.37H226.146z M215.026,199.16v-1.811h-8.029v1.811h2.708v7.021h2.698v-7.021H215.026z"/>
		<path fill="#FFFFFF" d="M29.86,174.245c0-3.295-1.524-6.472-3.938-8.294c-1.938-1.415-3.94-2.352-8.641-3.938
			c-3.585-1.174-4.585-1.706-5.405-2.648c-0.297-0.409-0.474-0.816-0.474-1.291c0-2.117,3.111-3.295,8.525-3.295
			c2.236,0,3.352,0.064,6.815,0.589l1.289-7.349c-3.643-0.875-6.342-1.229-9.575-1.229c-10.7,0-17.465,4.759-17.465,12.281
			c0,3.293,1.65,6.643,4.246,8.525c1.991,1.475,3.752,2.237,8.224,3.65c4.228,1.352,5.521,2.288,5.521,4.051
			c0,2.468-3.173,3.889-8.759,3.889c-1.93,0-3.993-0.243-7.525-0.773l-1.179-0.178L0,186.06c3.053,0.885,7.704,1.528,11.639,1.528
			C22.753,187.586,29.86,182.414,29.86,174.245"/>
		<path fill="#FFFFFF" d="M53.569,186.345v-6.396c-1.999,0.289-2.703,0.347-3.474,0.347c-1.282,0-2.467-0.293-3.169-0.762
			c-0.708-0.416-1.062-1.229-1.062-2.469v-1.769v-10.755h7.704v-5.991h-7.704v-9.349h-9.465v9.349h-5.351l0.008,5.983l5.343,0.008
			v13.992c0,4.059,0.886,6.168,3.003,7.466c1.644,1.001,3.997,1.59,6.699,1.59C48.571,187.588,51.101,187.176,53.569,186.345"/>
		<path fill="#FFFFFF" d="M85.855,186.124l-0.47-5.413l-0.59,0.061c-0.354,0.058-0.65,0.114-0.941,0.114
			c-0.824,0-1.236-0.175-1.644-0.648c-0.231-0.348-0.413-0.824-0.413-1.292v-11.753c0-3.819-0.531-5.588-2.114-7.062
			c-1.651-1.582-3.944-2.344-7.056-2.344c-4.467,0-10.172,1.812-14.636,4.644l2.819,5.636l0.824-0.4
			c1.94-0.945,2.468-1.178,3.766-1.594c0.643-0.238,1.282-0.411,1.995-0.583c0.766-0.181,1.704-0.301,2.293-0.301
			c2.057,0,2.762,0.769,2.762,3.055v0.298c-9.934,1.884-15.347,5.934-15.347,11.582c0.002,4.174,3.299,7.468,7.469,7.468
			c2.591,0,5.999-1.528,8.643-3.88c0.825,2.645,2.88,3.88,6.404,3.88C81.797,187.588,83.271,187.228,85.855,186.124 M72.506,178.654
			c-1.822,1.353-3.111,1.941-4.231,1.941c-1.234,0-2.229-0.943-2.229-2.126c0-2.054,2.468-3.87,6.46-4.875V178.654z"/>
		<path fill="#FFFFFF" d="M117.376,186.881l-0.004-17.567c0-5.24-0.528-7.586-2.056-9.298c-1.294-1.462-3.468-2.342-5.826-2.342
			c-3.585,0-7.581,1.933-10.641,5.219v-4.347h-8.988l0.004,28.334h9.346v-16.871c1.878-2.118,4.466-3.697,6.106-3.697
			c1.474,0,2.415,0.998,2.532,2.695c0.059,0.717,0.116,2.299,0.116,3.241v14.632L117.376,186.881L117.376,186.881L117.376,186.881z"
			/>
		<path fill="#FFFFFF" d="M151.95,186.887l-0.004-42.091h-9.407v16.63c-1.294-1.348-1.879-1.82-2.873-2.406
			c-1.477-0.824-3.36-1.35-5.055-1.35c-7.467,0-12.641,6.584-12.641,15.981c0,8.291,4.347,13.998,10.695,13.998
			c1.995,0,4.001-0.586,5.826-1.591c1.582-0.878,2.526-1.706,4.467-3.93v4.758H151.95L151.95,186.887z M142.54,176.361
			c-1.879,2.177-3.636,3.177-5.514,3.177c-3.13,0-5.299-2.938-5.299-7.176c0-4.289,2.002-6.993,5.171-6.993
			c2.114,0,3.881,0.998,5.642,3.291V176.361L142.54,176.361z"/>
		<path fill="#FFFFFF" d="M185.237,186.128l-0.469-5.41l-0.593,0.059c-0.347,0.064-0.646,0.116-0.938,0.116
			c-0.82,0-1.232-0.175-1.648-0.652c-0.231-0.351-0.408-0.824-0.408-1.29v-11.755c0-3.821-0.527-5.586-2.118-7.061
			c-1.651-1.583-3.938-2.344-7.053-2.344c-4.467,0-10.176,1.812-14.639,4.643l2.821,5.637l0.825-0.401
			c1.937-0.941,2.468-1.178,3.76-1.593c0.645-0.237,1.298-0.411,1.996-0.585c0.774-0.178,1.709-0.301,2.295-0.301
			c2.067,0,2.768,0.771,2.768,3.058v0.296c-9.93,1.885-15.346,5.938-15.346,11.584c0,4.172,3.291,7.467,7.469,7.467
			c2.58,0,5.995-1.532,8.64-3.881c0.82,2.642,2.884,3.881,6.407,3.881C181.185,187.595,182.655,187.235,185.237,186.128
			 M171.897,178.654c-1.828,1.356-3.117,1.944-4.238,1.944c-1.232,0-2.236-0.935-2.236-2.117c0-2.059,2.473-3.878,6.475-4.878
			V178.654L171.897,178.654z"/>
		<path fill="#FFFFFF" d="M209.235,158.563c-1.005-0.48-1.411-0.538-2.71-0.538c-3.639,0-6.637,2.23-8.815,6.468v-5.94h-9.055
			l0.004,28.334h9.466v-12.345c2.351-4.997,5.35-8.225,7.759-8.225c0.405,0,0.711,0.054,1.702,0.231L209.235,158.563z"/>
		<path fill="#FFFFFF" d="M240,186.888l-0.007-42.091h-9.414v16.634c-1.287-1.349-1.88-1.821-2.881-2.406
			c-1.467-0.825-3.347-1.35-5.05-1.35c-7.468,0-12.638,6.584-12.638,15.988c0,8.285,4.35,13.99,10.691,13.99
			c2.003,0,4.006-0.586,5.826-1.593c1.586-0.879,2.526-1.703,4.468-3.927v4.754H240L240,186.888z M230.583,176.367
			c-1.879,2.176-3.643,3.176-5.521,3.176c-3.12,0-5.295-2.942-5.295-7.173c0-4.291,1.999-6.996,5.175-6.996
			c2.118,0,3.872,0.998,5.641,3.293V176.367L230.583,176.367z"/>
		<path fill="#FFFFFF" d="M34.063,3.247c-4.621,1.143-7.451,5.825-6.306,10.454L54.61,122.292l-0.257-2.07
			c0,8.195,6.667,14.856,14.858,14.863l109.044,0.004c8.195,0,14.863-6.667,14.863-14.859l-0.195,1.817l23.408-108.583
			c1.02-4.664-1.957-9.26-6.612-10.266c-4.667-1.007-9.265,1.957-10.259,6.622c0,0-23.039,106.833-23.289,107.993
			c-3.938,0-100.966-0.003-104.879-0.003C71.125,117.143,44.524,9.557,44.524,9.557C43.379,4.926,38.699,2.101,34.063,3.247"/>
		<path fill="#FFFFFF" d="M181.314,32.613h-6.159L62.558,32.609l1.503,6.157l15.449,62.498l-0.15-1.197
			c0,4.716,3.841,8.553,8.555,8.553l70.189,0.005c4.712,0,8.546-3.838,8.546-8.559l-0.102,1.063L181.314,32.613z"/>
		<path fill="#FFFFFF" d="M73.157,9.59h-3.855l-8.951,16.069h4.532l1.329-2.563l8.977-0.028l1.292,2.591h5.144L73.157,9.59z
			 M73.895,20.528h-6.292l3.238-5.981L73.895,20.528z"/>
		<path fill="#FFFFFF" d="M88.774,12.331c0.636-0.035,1.268-0.118,1.905-0.118c2.524,0,3.284,0.993,3.284,2.314
			c0,1.312-0.76,2.313-3.284,2.313c-0.637,0-1.269-0.019-1.905-0.062V12.331z M88.781,19.402c0.961,0.025,1.922,0.065,3.111,0.065
			c5.037,0,6.616-2.173,6.616-4.798c0-3.401-1.9-5.082-8.172-5.082h-6.31v16.07h4.755V19.402z"/>
		<path fill="#FFFFFF" d="M106.354,12.331c0.632-0.032,1.268-0.118,1.906-0.118c2.518,0,3.275,1,3.275,2.314
			c0,1.312-0.759,2.313-3.275,2.313c-0.638,0-1.273-0.019-1.906-0.056V12.331z M106.354,19.402c0.965,0.025,1.922,0.065,3.111,0.065
			c5.04,0,6.62-2.173,6.62-4.798c0-3.401-1.907-5.082-8.176-5.082h-6.31v16.07h4.755V19.402L106.354,19.402z"/>
		<path fill="#FFFFFF" d="M123.927,12.214h4.137c2.132,0,3.116,0.82,3.116,2.215c0,1.759-0.983,2.461-4.382,2.461h-2.871V12.214
			L123.927,12.214z M123.927,25.659v-6.153h3.774c0.666,0,1.224,0.331,1.571,0.986l2.751,5.167h5.566l-2.764-4.715
			c-0.921-1.579-2.518-2.234-3.892-2.625v-0.04c2.645-0.597,4.997-1.047,4.997-4.37c0-2.517-1.882-4.326-5.817-4.326h-10.942v16.074
			L123.927,25.659L123.927,25.659L123.927,25.659z"/>
		<path fill="#FFFFFF" d="M148.977,25.941c5.59,0,9.644-2.204,9.644-8.315c-0.004-6.111-4.055-8.322-9.644-8.322
			c-5.608-0.003-9.658,2.21-9.658,8.322C139.318,23.738,143.368,25.941,148.977,25.941 M153.865,17.626
			c0,3.159-1.864,4.511-4.889,4.511c-3.042,0-4.91-1.359-4.91-4.511c0-3.158,1.868-4.505,4.91-4.505
			C152.001,13.122,153.865,14.467,153.865,17.626"/>
		<polygon fill="#FFFFFF" points="160.242,25.663 165.405,25.663 170.381,19.819 174.971,25.663 180.524,25.663 173.808,17.196 
			180.319,9.594 175.242,9.594 170.895,14.571 166.412,9.594 160.694,9.594 167.458,17.196 		"/>
		<rect x="182.868" y="21.644" fill="#FFFFFF" width="3.48" height="4.018"/>
	</g>
</g>
<g id="Layer_4">
</g>
</svg>
